<svg width="48" height="49" viewBox="0 0 48 49" fill="none" xmlns="http://www.w3.org/2000/svg">
<path id="c1 - Copy 1 (Traced)" fill-rule="evenodd" clip-rule="evenodd" d="M12.0162 12.492C5.4073 19.0902 0 24.4934 0 24.4992C0 24.5049 0.723776 25.2347 1.6084 26.1209C2.59169 27.106 3.21361 27.7407 3.20859 27.7541C3.20387 27.7666 3.24278 27.8162 3.29991 27.8705C3.35465 27.9225 3.44634 28.0127 3.50367 28.071C3.56099 28.1293 3.62797 28.1847 3.65252 28.1941C3.6849 28.2064 19.9846 44.5066 23.4562 47.9983C23.7119 48.2555 23.8274 48.3606 23.8748 48.3792C23.9342 48.4026 23.9871 48.4336 24.0638 48.4902C24.0862 48.5068 24.1034 48.5034 24.16 48.4717C24.2531 48.4195 24.2834 48.3908 24.3173 48.323C24.3534 48.2507 24.5012 48.1074 24.5688 48.0792C24.602 48.0654 24.6218 48.0446 24.625 48.0204C24.6282 47.9959 25.159 47.452 26.1693 46.4381C27.0159 45.5883 28.0856 44.5137 28.5464 44.0501C29.2702 43.3219 29.3876 43.21 29.4092 43.2283C29.4306 43.2464 29.4444 43.2376 29.5047 43.1672C29.5434 43.1219 29.6107 43.0571 29.6542 43.0233C29.6976 42.9894 29.7482 42.9343 29.7666 42.901C29.8019 42.8368 29.9644 42.6705 29.9918 42.6705C30.0007 42.6705 30.0503 42.6345 30.102 42.5905C30.1537 42.5466 30.2244 42.4946 30.2592 42.4751C30.3061 42.4487 30.3121 42.4416 30.2823 42.4474C30.2602 42.4517 30.2133 42.46 30.178 42.4658L30.1139 42.4764L30.282 42.3072C30.3745 42.2141 34.3849 38.1872 39.1941 33.3584C45.7365 26.7895 47.9359 24.5718 47.9293 24.5506C47.9239 24.5332 47.936 24.5075 47.9608 24.4838C48.0049 24.4415 48.0121 24.4181 47.981 24.4181C47.9204 24.418 47.7624 24.3173 47.6884 24.2315C47.5089 24.0238 47.4078 23.9347 47.3515 23.9347C47.329 23.9347 44.6608 21.2587 39.0048 15.5633C34.4323 10.9591 30.6192 7.12007 30.5313 7.03221C30.3726 6.87361 30.3717 6.87224 30.4016 6.83847C30.4363 6.79929 30.4383 6.8026 30.3544 6.7588C30.3191 6.74039 30.247 6.6799 30.1941 6.6244C30.1412 6.56891 30.0618 6.50527 30.0177 6.48297C29.9653 6.45648 29.8791 6.38076 29.7691 6.2647C29.5666 6.05098 24.0606 0.506866 24.044 0.500001C24.0377 0.497347 18.6251 5.89373 12.0162 12.492ZM26.4978 4.43097C27.6709 5.61261 28.6306 6.58439 28.6306 6.59049C28.6306 6.60222 23.0507 8.49885 23.0436 8.48952C23.0348 8.47792 24.3419 2.28253 24.3531 2.28253C24.3597 2.28253 25.3248 3.24933 26.4978 4.43097ZM22.556 5.83837L21.9191 8.87731L18.2555 10.1265L14.5919 11.3757L14.9046 11.0661C15.0766 10.8958 17.0104 8.96525 19.202 6.77596C21.3936 4.58667 23.1881 2.79633 23.1898 2.79743C23.1915 2.79853 22.9063 4.16695 22.556 5.83837ZM32.0822 5.43241C32.0535 5.4418 32.0301 5.45905 32.0301 5.47073C32.0301 5.51171 32.0574 5.50848 32.1117 5.46111C32.17 5.41016 32.165 5.40528 32.0822 5.43241ZM31.9471 9.91773L33.6627 11.6463L31.3391 11.6504C30.0611 11.6527 27.9689 11.6527 26.6898 11.6504L24.3641 11.6463L26.9582 9.58016L29.5522 7.51402L29.8919 7.85159C30.0786 8.03726 31.0035 8.96702 31.9471 9.91773ZM20.3456 10.6353C20.2469 10.7318 16.5213 14.453 12.0664 18.9047C7.61152 23.3564 3.96116 26.9986 3.95449 26.9986C3.94011 26.9986 1.45919 24.5147 1.45919 24.5003C1.45919 24.4948 4.04002 21.9138 7.19438 18.7647L12.9296 13.039L16.7112 11.75C18.7911 11.0411 20.5001 10.4608 20.5089 10.4605C20.5177 10.4602 20.4442 10.5389 20.3456 10.6353ZM33.9191 12.74C33.9064 12.7603 31.3175 17.0589 28.1659 22.2926C25.0143 27.5263 22.4299 31.8063 22.423 31.8039C22.416 31.8013 21.4254 30.8076 20.2216 29.5956L18.033 27.3919L18.0322 22.5245L18.0315 17.6572L20.5502 15.1802L23.069 12.7031H28.5055H33.9419L33.9191 12.74ZM34.516 20.8544C34.4533 24.7294 34.3981 27.959 34.3935 28.0313L34.385 28.1628L33.444 28.4691C32.4291 28.7994 23.8168 31.5312 23.8108 31.5247C23.8088 31.5225 26.24 27.4808 29.2135 22.5431L34.6198 13.5654L34.625 13.6872C34.6278 13.7542 34.5788 16.9795 34.516 20.8544ZM41.5526 19.5927C45.4127 23.4796 46.2173 24.2973 46.1931 24.3083C46.144 24.3307 35.4226 27.8245 35.4179 27.8196C35.4107 27.8123 35.6384 13.937 35.6481 13.7881L35.657 13.6524L36.2699 14.2714C36.607 14.6119 38.9842 17.0065 41.5526 19.5927ZM13.2866 27.171C15.4897 29.3646 17.29 31.1615 17.2874 31.1642C17.284 31.1676 5.04783 27.5289 4.94448 27.4937C4.92869 27.4883 9.25018 23.1737 9.26661 23.1785C9.27452 23.1808 11.0835 24.9774 13.2866 27.171ZM12.1305 30.7172C15.6009 31.7509 18.4482 32.6053 18.4579 32.6158C18.4718 32.6311 19.8523 36.7215 22.8852 45.7344L23.0037 46.0867L22.7024 45.7816C22.5366 45.6139 18.7967 41.8692 14.3915 37.4602C6.17776 29.2395 5.75541 28.8154 5.79668 28.8295C5.80991 28.834 8.66015 29.6835 12.1305 30.7172ZM38.3397 32.7565C36.6776 34.434 29.3903 41.7358 29.3814 41.7327C29.3745 41.7303 28.1881 40.5527 26.745 39.1159L24.1213 36.5034L24.2313 36.4733C24.773 36.3252 38.4079 32.6612 38.4199 32.6605C38.4286 32.6599 38.3926 32.7031 38.3397 32.7565ZM24.3391 38.1772C26.7039 40.5316 28.6387 42.4664 28.6387 42.4767C28.6387 42.487 27.6682 43.47 26.482 44.6612L24.3254 46.827L24.2595 46.6207C24.2232 46.5072 23.24 43.5847 22.0746 40.1262C20.9092 36.6678 19.9557 33.8334 19.9557 33.8276C19.9557 33.8122 19.7121 33.5705 24.3391 38.1772ZM30.7122 42.3867C30.7238 42.3915 30.7376 42.3909 30.7429 42.3854C30.7483 42.38 30.7388 42.3761 30.7219 42.3768C30.7032 42.3776 30.6994 42.3815 30.7122 42.3867ZM26.8095 46.4412C26.7739 46.48 26.7706 46.4881 26.7959 46.4747C26.8347 46.4543 26.8748 46.4089 26.8639 46.3977C26.8598 46.3935 26.8353 46.4131 26.8095 46.4412Z" fill="white"/>
</svg>
