<svg width="727" height="139" viewBox="0 0 727 139" fill="none" xmlns="http://www.w3.org/2000/svg">
<path d="M617.449 92.6859L643.774 90.1266C645.359 98.9625 648.558 105.452 653.372 109.596C658.247 113.74 664.798 115.812 673.024 115.812C681.738 115.812 688.289 113.984 692.677 110.327C697.125 106.61 699.349 102.284 699.349 97.3477C699.349 94.1789 698.405 91.4977 696.516 89.3039C694.688 87.0492 691.458 85.0992 686.827 83.4539C683.658 82.357 676.437 80.407 665.163 77.6039C650.66 74.0086 640.484 69.5906 634.634 64.35C626.407 56.9766 622.294 47.9883 622.294 37.3852C622.294 30.5602 624.213 24.1922 628.052 18.2812C631.952 12.3094 637.528 7.76953 644.78 4.66172C652.092 1.55391 660.898 0 671.196 0C688.015 0 700.659 3.68672 709.13 11.0602C717.661 18.4336 722.14 28.275 722.566 40.5844L695.51 41.7727C694.352 34.8867 691.854 29.9508 688.015 26.9648C684.237 23.918 678.539 22.3945 670.922 22.3945C663.061 22.3945 656.906 24.0094 652.458 27.2391C649.594 29.3109 648.162 32.0836 648.162 35.557C648.162 38.7258 649.502 41.4375 652.184 43.6922C655.596 46.5563 663.884 49.5422 677.046 52.65C690.209 55.7578 699.928 58.9875 706.205 62.3391C712.542 65.6297 717.478 70.1695 721.013 75.9586C724.608 81.6867 726.405 88.7859 726.405 97.2563C726.405 104.934 724.273 112.125 720.007 118.828C715.741 125.531 709.709 130.528 701.909 133.819C694.109 137.048 684.389 138.663 672.75 138.663C655.809 138.663 642.799 134.763 633.72 126.963C624.64 119.102 619.216 107.677 617.449 92.6859Z" fill="black"/>
<path d="M540.028 136.287V24.9539H500.266V2.28516H606.755V24.9539H567.084V136.287H540.028Z" fill="black"/>
<path d="M374.857 136.287V2.28516H401.182L456.026 91.7719V2.28516H481.162V136.287H454.015L399.994 48.9023V136.287H374.857Z" fill="black"/>
<path d="M247.162 136.287V2.28516H346.521V24.9539H247.162V54.6609H346.521V77.2383H247.162V113.709H349.08V136.287H247.162Z" fill="black"/>
<path d="M159.047 136.287L111.15 2.28516H140.491L174.403 101.461L207.218 2.28516H235.92L187.931 136.287H159.047Z" fill="black"/>
<path d="M0 136.287V65.4867V2.28516H99.3586V24.9539H0V54.6609H99.3586V77.2383H0V113.709H101.918V136.287H0Z" fill="black"/>
</svg>
