<svg width="116" height="41" viewBox="0 0 116 41" fill="none" xmlns="http://www.w3.org/2000/svg">
<path d="M13.3509 7.34722C13.3509 7.45272 13.3093 7.58322 13.226 7.7387L13.0927 7.95527L13.0094 8.39673L12.443 9.61285L12.2181 10.4625L12.0515 10.6707C12.0515 10.8262 12.0321 10.94 11.9932 11.0122C11.9599 11.0844 11.8822 11.1816 11.76 11.3037L11.5528 11.5624C11.5528 11.9678 11.4185 12.2783 11.3185 12.4449L10.9937 13.003L10.6855 14.0275C10.5134 14.4217 10.4615 14.6133 10.4615 14.6855C10.4615 14.6688 10.4727 14.7105 10.4949 14.8105L10.3606 15.0353L10.194 15.4935L10.0524 15.7184L9.95248 16.2098L9.78589 16.6096L9.80256 16.9261L9.49436 17.3593C9.44996 17.4315 9.42773 17.5397 9.42773 17.6841L8.87215 18.1423C8.60535 18.3118 7.77926 18.5609 7.798 18.5628C7.798 18.5628 6.85784 18.1764 6.75646 18.2006L6.58154 17.8757L6.19006 16.8012L6.02347 16.1515V16.1349V15.9099L5.95682 15.7267L5.88186 15.7434L5.63197 15.0437L5.71527 14.8521C5.62642 14.8243 5.56257 14.7938 5.5237 14.7605C5.49038 14.7272 5.45151 14.6661 5.40709 14.5772C5.45151 14.444 5.47371 14.3662 5.47371 14.344C5.47371 14.2996 5.46816 14.2524 5.45705 14.2024C5.41262 14.1469 5.36822 14.0969 5.32379 14.0525L5.06557 13.9025C5.02114 13.8859 4.99894 13.7998 4.99894 13.6443L5.01559 13.4361L4.93229 13.3028L4.85733 13.028L4.60744 12.803L4.31591 12.0367L4.18265 11.8202L4.1993 11.5953L3.99106 11.3037L4.24928 11.0872L4.09102 10.9289H3.94108C3.88556 10.9289 3.83836 10.9234 3.79949 10.9122L3.29138 9.92103C3.35803 9.82109 3.39134 9.74335 3.39134 9.68781L3.34136 9.49624L3.0665 9.39628L2.81661 8.92151H2.68036L1.70557 6.74344C1.70557 6.74344 2.55263 6.47259 2.68036 6.25604C2.64149 6.25604 2.7581 6.20606 2.68036 6.25604C2.69147 6.25604 3.34482 6.35566 3.41145 6.37789L3.82447 6.1676L3.89884 6.86528C3.89884 6.90971 3.99325 7.00346 3.89884 7.10898V7.23083L4.14254 7.05568C4.15365 7.089 4.90731 7.68318 4.90731 7.7387C4.90731 7.8553 5.06557 7.94179 4.87363 8.08377L4.95729 8.09686L4.99061 8.32177C4.99061 8.42173 5.01559 8.4828 5.06557 8.50503L5.24881 8.67993L5.42373 9.28798L5.7236 9.78775L5.79856 10.2625L6.01514 10.6374L5.91517 10.9122V11.1288C5.91517 11.2621 5.92351 11.3454 5.94018 11.3787C5.96238 11.412 6.01514 11.437 6.09843 11.4537C6.16506 11.3759 6.22338 11.337 6.27333 11.337C6.28445 11.337 6.29556 11.3426 6.30667 11.3537C6.32887 11.3759 6.34554 11.387 6.35663 11.387L6.63152 12.2283L7.00635 13.1279C7.02855 13.1945 7.03967 13.2584 7.03967 13.3195L7.00635 13.6443C7.08965 13.7276 7.13961 13.822 7.15627 13.9275C7.23401 13.8942 7.29233 13.8775 7.3312 13.8775C7.39227 13.8775 7.43114 13.9053 7.44781 13.9608L7.5894 14.4106L7.91985 15.3947L8.30575 14.8021L8.53066 14.4106C8.5473 14.294 8.57228 14.219 8.60562 14.1857C8.64449 14.1524 8.72778 14.1358 8.8555 14.1358V13.9192C8.8555 13.7471 8.88326 13.5749 8.9388 13.4028L8.87215 13.2695L9.07205 12.828L9.26365 12.2283L9.52185 12.0701C9.57738 12.0145 9.60514 11.9701 9.60514 11.9368V11.9201L9.52185 11.5286L9.94666 10.4042V10.2792V10.0793L10.0799 9.95437L9.96333 9.44626L10.03 9.34629L9.94666 9.22135L10.0966 8.97149L10.0466 8.86319L10.1466 8.76325C10.1577 8.66328 10.166 8.60497 10.1715 8.58832C10.1771 8.57165 10.2077 8.5078 10.2632 8.39673C10.3243 8.28012 10.3826 8.15795 10.4381 8.03023L10.5547 7.75536C10.477 7.64987 10.4381 7.58322 10.4381 7.55546C10.4381 7.47216 10.4853 7.35833 10.5797 7.21394C10.6019 7.16952 10.6297 7.14731 10.663 7.14731L11.3316 6.64374L12.443 6.38932L13.0927 7.0057C13.2648 7.02237 13.3509 7.1362 13.3509 7.34722Z" fill="white"/>
<path d="M28.664 16.5347L28.5558 16.8928L28.3726 16.8762C28.3058 16.8762 28.5063 17.8505 28.4786 17.8838L28.2012 18.1796L27.9763 18.3378L27.9095 18.4211L27.6015 18.3878L27.2433 18.5628H27.2267L26.8185 18.4378L26.7685 18.4211L25.8274 18.4545L25.5608 18.4211L25.4691 18.2879C25.1304 18.3545 24.9389 18.3878 24.8943 18.3878L24.5862 18.3712L24.3779 18.4045L24.3113 18.2379H24.2114L24.1281 18.2546L23.8365 18.4045L22.1956 18.4211L21.9541 18.5378C21.7708 18.4156 21.6292 18.3545 21.5292 18.3545L21.4459 18.3712L21.0212 18.4878L20.538 18.3878L19.2517 18.0463L18.0487 18.4378C17.9987 18.4378 17.7905 18.3712 17.424 18.2379L17.5073 18.0463L17.7072 17.5715L17.6522 16.7262L17.7438 16.3181V15.6934L17.7938 15.4518L17.7605 13.5194L17.7938 13.0279L17.7771 12.8447L17.7271 12.6531L18.0687 12.6364C18.0076 12.5032 17.9548 12.4088 17.9104 12.3532C17.866 12.2977 17.7882 12.2283 17.6772 12.145L17.6355 12.0034L17.6772 11.387L17.6022 10.3292L17.6772 9.92102L17.7105 9.75443L17.5356 9.70447L17.4689 9.52955L17.4356 8.98813L17.3357 8.8132L17.319 8.7299L17.3357 8.52166L17.4023 8.42172L17.8604 8.53833L17.7271 8.42172C17.6439 8.36063 17.6022 8.30512 17.6022 8.25513C17.6022 8.22738 17.6133 8.18017 17.6355 8.11352L17.5023 8.06356L17.3357 8.11352C17.319 7.84143 17.2996 7.66095 17.2774 7.57212C17.2607 7.48327 17.2274 7.43051 17.1774 7.41384L16.8525 7.28059L17.1774 6.74343L17.0774 6.05922C17.1163 6.0148 17.2079 5.96482 17.3523 5.90928L17.5106 5.85929C17.7827 5.7316 17.8888 5.68439 18.0332 5.68439C18.0388 5.68439 18.1464 5.66772 18.152 5.66772C18.1575 5.66772 18.6313 5.87938 18.6424 5.89049L20.4248 5.89263L20.9912 5.94259L21.3077 6.04256C21.5131 5.96482 21.652 5.92595 21.7241 5.92595C21.7575 5.92595 21.7797 5.9315 21.7908 5.94259L23.0485 6.07587L24.1564 6.00924L24.5894 6.13419L24.8394 6.07587V5.97593C25.2225 5.93706 25.503 5.88708 25.6807 5.82598C25.9251 5.7316 26.0721 5.68439 26.122 5.68439L26.2887 5.71771C26.2609 5.84543 26.2249 5.93706 26.1805 5.99257C26.1415 6.04256 25.9112 7.14731 25.7723 7.21394C25.7611 7.3139 25.7418 7.38331 25.7141 7.42218C25.6863 7.46105 25.6056 7.51658 25.4723 7.58877C25.1838 7.72205 24.945 7.78867 24.7561 7.78867H24.6645L24.223 7.75536L23.8482 7.80534L23.0819 7.72204L22.9069 7.70538C22.7515 7.60544 22.5988 7.55545 22.4488 7.55545C22.3322 7.68873 22.1157 7.75536 21.7991 7.75536L21.5492 7.73871L21.5076 7.58877L21.341 7.63875L21.0994 7.73871L19.9583 7.63875L19.7751 7.91362L19.8417 7.98027V8.04689L19.875 8.48835L19.8084 9.13805L19.8417 9.37963L19.8584 9.56286L20.0249 9.61284L21.1661 9.72112C21.2438 9.72112 21.3577 9.77666 21.5076 9.88771L21.7658 9.83773C21.9213 9.78221 22.0351 9.75443 22.1073 9.75443H22.124L23.0152 9.80442L23.54 9.82108H24.0148C24.1147 9.82108 24.198 9.81275 24.2646 9.79608C24.3368 9.77944 24.4147 9.7489 24.4978 9.70447L25.1309 9.82108L25.2808 9.78777L25.639 9.70447L26.2887 9.68781L26.9718 9.59618C27.0495 9.6184 27.1273 9.66005 27.205 9.72112L27.38 9.61284C27.4909 9.52399 27.5937 9.47957 27.688 9.47957L27.8713 9.49624L28.0628 9.47957V9.73779L27.7146 10.8823L27.1382 11.3037C27.0773 11.3537 27.0191 11.3787 26.9635 11.3787H26.9301L26.372 11.3037L25.6556 11.3287L25.2642 11.2371L23.8648 11.3287L23.6066 11.3037C23.5455 11.1927 23.4761 11.1371 23.3984 11.1371C23.354 11.1371 23.3206 11.1427 23.2984 11.1538L22.9236 11.3037L21.8324 11.1871L21.2994 11.3787L20.9245 11.2704L20.6163 11.462L19.9764 11.5619H19.7917L19.9083 11.7119L19.7917 12.07C19.875 12.2255 19.925 12.3394 19.9416 12.4116L19.9083 12.6864L19.975 13.4527V13.4694C19.975 13.5416 19.9139 13.6554 19.7917 13.8109C19.9361 13.9942 20.0083 14.1441 20.0083 14.2607C20.0083 14.294 19.9972 14.3329 19.975 14.3773L19.7501 14.8521L19.9916 15.2769L20.043 16.3681L20.3012 16.418L21.4257 16.8095L21.8005 16.7596C21.8894 16.7596 22.0143 16.804 22.1753 16.8928C22.2864 16.7929 22.3669 16.7429 22.4169 16.7429H22.4502L23.2165 16.8928L23.683 16.8428L24.0911 16.9261L25.0824 16.8595L25.3656 16.9095L25.8486 16.9261L26.0153 16.9844L25.9653 16.8595L26.1569 16.8262L26.9399 16.8095L27.1063 16.7429L28.0809 16.568C28.1086 16.5624 28.1725 16.5485 28.2726 16.5263C28.3726 16.4986 28.4335 16.4847 28.4557 16.4847C28.489 16.4847 28.5585 16.5013 28.664 16.5347Z" fill="white"/>
<path d="M45.2883 17.6862V17.8091L45.08 17.959L44.7717 18.0423L44.1805 18.2505C44.0138 18.295 43.8361 18.3172 43.6473 18.3172L42.8906 18.3191C42.7073 18.0469 42.2814 18.2117 42.248 18.2006H41.978L41.7781 18.034L41.6699 17.909C41.5254 17.7313 41.4533 17.6397 41.4533 17.6341L41.3782 17.1594L41.0619 17.0428L40.787 16.6346L40.4622 16.5097L40.2704 16.2431L40.1373 16.2015L40.0206 16.0682L39.7457 15.8433L39.5875 15.6601L39.3543 15.5268L39.0626 15.1853L38.8879 15.0104C38.9157 14.9382 38.9295 14.8771 38.9295 14.8271C38.9295 14.6994 38.8823 14.6244 38.7877 14.6022L38.3798 14.5189L38.263 14.3773L37.78 14.0191L37.5468 13.661L37.4074 13.1612L37.1637 12.878L36.92 12.8359L36.7982 12.6031L36.6839 12.5698L36.584 12.6031L36.5671 12.9946C36.6449 13.039 36.6839 13.0946 36.6839 13.1612C36.6839 13.2223 36.6783 13.2639 36.6673 13.2861L36.6005 13.4861L36.5671 13.9692L36.534 14.344L36.5671 14.5772L36.5006 14.7855L36.6173 14.9937L36.6005 15.1603L36.5506 15.6018L36.5671 15.8766L36.7421 17.226V17.276C36.7421 17.3815 36.706 17.4676 36.6339 17.5342L36.4672 17.6841L36.3256 17.8091H36.0425C35.9481 17.8091 35.5353 17.872 35.4576 17.9497L34.4487 18.2838C34.4265 18.3061 34.3739 18.3172 34.2905 18.3172C34.1794 18.3172 34.1238 18.2838 34.1238 18.2172C34.1238 18.1783 34.1906 18.0118 34.3239 17.7174C34.3848 17.6119 34.4155 17.4703 34.4155 17.2927L34.4321 16.7262L34.532 16.443L34.4821 15.8266L34.5654 15.6767L34.6987 15.6934C34.7708 15.6934 34.8208 15.6712 34.8486 15.6267C34.8764 15.5768 34.6987 15.5279 34.6987 15.3947L34.7735 15.2436C34.6458 15.1492 34.582 15.0409 34.582 14.9187L34.6319 14.5939L34.5488 14.4939L34.532 14.219L34.5488 13.8442L34.6154 13.2029L34.5488 12.3949L34.5988 12.0034L34.4986 11.7868C34.5154 11.7091 34.618 11.6397 34.8069 11.5786V11.2704C34.7292 11.1705 34.6541 11.1205 34.582 11.1205L34.5654 10.7456L34.532 10.096L34.582 9.7711C34.5098 9.63783 34.4599 9.52399 34.4321 9.42959C34.4099 9.3352 34.3987 9.19915 34.3987 9.02144V8.97148V8.64661L34.3405 8.59665L34.3987 7.98027C34.3987 7.81923 34.3461 7.66095 34.2406 7.50547L33.9157 7.3139V6.74034L34.0907 6.69035L34.2072 6.64037C34.5625 6.496 35.7927 6.10728 36.1424 6.09064L36.7421 6.0573L37.0004 6.02399C37.1116 6.12951 37.1947 6.18224 37.2502 6.18224H37.267L38.1083 6.02399L38.2915 6.13229C38.3081 6.13229 38.3193 6.13506 38.3247 6.1406C38.3359 6.1406 38.3469 6.14337 38.3581 6.14893L38.5664 6.13229L39.1494 6.14893H40.3237L41.2069 6.29888L41.7732 6.33219L42.4395 6.60111L42.7978 7.38053C42.9866 7.43607 43.1282 7.54434 43.2225 7.70538C43.3224 7.86088 43.3724 8.04967 43.3724 8.2718C43.3724 8.47171 43.3724 8.95204 43.2725 9.22968L42.9311 8.93815C42.9476 9.07698 43.0475 9.41294 43.1309 9.46292L43.0475 9.65449L42.973 10.1495L42.8648 10.2911C42.8426 10.3133 42.7536 10.3244 42.5982 10.3244C42.576 10.3577 42.5648 10.3966 42.5648 10.441L42.6316 10.5826L42.5231 10.7159L42.3398 10.8159L41.965 11.249L41.6901 11.3489L41.4153 11.5322L41.2488 11.5489C41.1989 11.6988 41.1182 11.8015 41.0073 11.857L40.8072 11.9403L40.5492 12.032H40.3408L39.9326 12.1652L39.8161 12.1819L39.5875 12.195H39.4749C39.425 12.1617 39.357 12.2266 39.357 12.2266L39.297 12.3782C39.3636 12.306 39.3492 12.3893 39.4493 12.3782L39.6241 12.5698L39.541 12.6364C39.5576 12.8086 39.6131 12.8947 39.7074 12.8947L39.8741 12.878L40.0491 13.0946L40.5238 13.6277L40.8487 13.9192L41.2069 14.344L41.1567 14.5606L41.5149 14.7521C41.5593 14.8577 41.5927 14.9243 41.6148 14.9521C41.6426 14.9743 41.7287 15.0381 41.8732 15.1436L42.248 15.5518L42.5063 15.8433L42.6393 15.9932V16.1015C42.6393 16.207 42.6671 16.2959 42.7227 16.3681L43.0644 16.4763L43.2225 16.593L43.514 16.8678L44.3638 17.3926L44.5385 17.5675C44.5609 17.5675 44.5748 17.5703 44.5802 17.5759C44.5914 17.5759 44.5997 17.5786 44.6053 17.5842L45.1299 17.5009H45.1468C45.2245 17.5009 45.1494 17.564 45.2883 17.6862ZM41.7898 8.56331C41.7898 8.31898 41.7204 8.14686 41.5817 8.0469L41.3151 7.83866L41.0236 7.62208L40.7487 7.60544L40.3571 7.46383L40.2738 7.44718H40.1322L40.0491 7.36388L39.8573 7.28059L39.6909 7.38053L38.5162 7.28059L38.408 7.36388L38.2747 7.34722L37.1169 7.48049H36.9422L36.8089 7.63875C36.6922 7.63875 36.6117 7.68596 36.5671 7.78036C36.5228 7.86919 36.5006 8.06079 36.5006 8.3551L36.5172 8.8965L36.534 9.25468V9.47957C36.3729 9.60729 36.2925 9.71557 36.2925 9.80442C36.2925 9.9377 36.3951 10.0293 36.6005 10.0793L36.6673 10.2625L36.6339 10.5374V10.779L36.5671 11.1705C36.584 11.3037 36.7034 11.4176 36.9254 11.512L36.9088 11.5786L37.6584 11.5619L37.7666 11.6619L37.9167 11.6286L38.1914 11.5953L38.7329 11.387L38.9244 11.462L39.1077 11.3704L39.8573 11.1038L40.1322 10.9122L40.6988 10.6707L41.1067 9.99601L41.5649 9.49624L41.5983 9.22135L41.7564 8.79656L41.7898 8.56331Z" fill="white"/>
<path d="M63.8059 11.7535L63.7226 12.1117L63.756 12.5198C63.7392 12.7308 63.6753 12.8891 63.5644 12.9946L63.4311 13.1695L63.0895 13.2528C63.0563 13.2861 63.0229 13.3666 62.9896 13.4944L63.0229 13.5277H63.1063L63.0563 13.4194L63.2228 13.5443L63.1394 13.6609L63.0895 13.8692L62.9564 14.0858L62.7646 14.3606L62.4814 15.1269L62.1566 15.6434L61.8734 15.8433L61.1679 16.3695C61.0236 16.4972 60.6864 17.0345 60.5808 17.0623L59.9645 17.2705L59.8147 17.3371C59.8147 17.4426 59.7869 17.5231 59.7313 17.5787L59.5563 17.6453L58.5818 18.1201L57.9903 18.5033C57.7961 18.6254 57.6072 18.6865 57.424 18.6865C57.3575 18.6865 57.2712 18.6587 57.1657 18.6032C57.0604 18.6698 56.8464 18.7559 56.5245 18.8614L56.0412 19.0114L55.7164 19.078L55.0333 19.128L54.8501 19.1613L54.4087 18.9947C54.1867 19.1169 53.9757 19.1835 53.7756 19.1946L53.7256 19.128C53.5758 19.128 53.4507 19.0835 53.3508 18.9947L53.0426 18.9614V19.1613C52.8539 19.2668 52.6595 19.3196 52.0931 18.9614C51.9654 18.9614 51.0167 18.9281 50.8834 18.8947C50.417 18.767 50.1503 18.7032 50.0838 18.7032C49.9561 18.7032 49.892 18.6809 49.892 18.6365V18.5866L50.017 18.4449L50.2169 18.395C50.4114 18.3395 50.5252 18.3117 50.5585 18.3117L50.6251 18.3283L50.8251 17.4842C50.9251 17.3731 50.975 17.2982 50.975 17.2593V17.0011L51.0749 16.6429L51.0915 16.4763V16.3764L51.2 16.3014C51.1166 16.2126 51.0749 16.1098 51.0749 15.9932L51.1166 15.5018L51.1332 15.2769L51.3164 15.0936C51.2499 14.9937 51.2165 14.9187 51.2165 14.8687L51.2 14.6022L51.0915 14.3939L51.1166 13.9192V13.3361L51.2499 13.0612C51.2721 12.9724 51.2831 12.9113 51.2831 12.878C51.2831 12.7836 51.2192 12.692 51.0915 12.6031L51.0749 12.2783V12.1283C51.0749 12.0617 51.1332 11.9867 51.2499 11.9034L51.2665 11.4453H51.0584L51.0084 11.2704L51.0416 10.8289L50.9582 10.1792L51.025 9.99598L50.9082 9.75441L50.8917 8.93812L50.6667 8.67992L50.8583 8.30509L50.8751 8.18014L50.8251 7.70535L50.8083 6.92237C50.6862 6.90573 50.5724 6.87242 50.4669 6.82243L50.242 6.73914V6.49758L50.5334 6.38097H51.1831L52.3597 6.23936C52.4652 6.19494 52.6124 6.17274 52.801 6.17274L53.3508 6.15607L53.6508 6.25603L53.8589 6.18938L54.0088 6.28101H54.2837L54.6086 6.29768L54.9168 6.33099H54.9334L55.2083 6.28101L55.7664 6.46427L56.4329 6.48091L56.6576 6.58088L57.5907 6.68916L58.157 6.85575L58.8233 6.97236L59.2815 7.13061L59.473 7.19726L59.4396 7.37217L59.5398 7.47213L59.473 7.57209L59.5064 7.60541L59.4564 7.67204L59.5064 7.65539L59.7978 7.55543L60.0311 7.4888L60.2394 7.55543L60.5475 7.63872L60.7307 7.76367L60.7475 7.9469L60.8223 7.96357L61.1389 7.9469C61.2444 7.9469 61.3638 8.04409 61.4971 8.23844H61.6222C61.7664 8.23844 61.9831 8.84926 62.2719 9.05473C62.5828 9.26574 62.8438 9.51563 63.0546 9.80439L62.9298 9.921L62.9547 10.0459L63.0546 10.2125L63.2213 10.3291C63.2769 10.3958 63.3295 10.5235 63.3795 10.7123C63.2742 10.7567 63.3612 10.8196 63.3612 10.8863C63.35 10.8751 63.3612 10.9196 63.3612 10.8863L63.4796 11.3037C63.5018 11.3481 63.8059 11.7035 63.8059 11.7535ZM61.997 11.2704C61.8914 11.2259 61.8247 11.1843 61.7969 11.1454C61.7691 11.101 61.7499 11.0233 61.7386 10.9122L61.6721 10.8956V10.7956C61.6721 10.7401 61.6387 10.654 61.572 10.5374L61.4138 10.2792L61.4304 10.1959L61.2639 10.0459L60.8557 9.73776C60.8114 9.71 60.7668 9.67389 60.7224 9.62946C60.6781 9.58506 60.6252 9.52674 60.5643 9.45456C60.5087 9.37682 60.4449 9.29353 60.3727 9.20467H60.1895C60.0506 9.20467 59.9368 9.19356 59.8478 9.17136L59.0482 8.74655L58.69 8.67992L58.4651 8.57995L58.2735 8.53831L58.2404 8.35507C58.0903 8.32173 58.0016 8.30509 57.9738 8.30509C57.9182 8.30509 57.8488 8.3384 57.7654 8.40503C57.5878 8.31064 57.4462 8.25511 57.3406 8.23844C57.2242 8.21624 57.1408 8.20234 57.0909 8.19679C57.0465 8.1857 57.0102 8.17181 56.9824 8.15514C56.9602 8.13294 56.9298 8.1024 56.891 8.06354L56.7577 7.93026C56.6354 7.99688 56.516 8.0302 56.3995 8.0302C56.255 8.0302 56.1412 7.99688 56.0581 7.93026L55.858 7.78864L55.3416 7.70535L54.1504 7.55543L53.5675 7.60541L53.4507 7.53876L53.3676 7.60541L53.276 7.772L53.0928 7.6887L53.0594 7.93026C53.0482 8.16903 53.0177 8.34951 52.9677 8.47168L53.0094 8.64658C53.0871 8.91314 53.1259 9.06584 53.1259 9.10471L53.1093 9.25466L53.0094 9.188H52.9512C52.9621 9.41013 53.0094 9.58781 53.0928 9.72109V9.95434L52.9843 9.93767C52.9287 9.98765 52.8788 10.0126 52.8344 10.0126H52.7511L52.7177 10.1792L52.8344 10.3291C52.9512 10.3736 53.0289 10.4152 53.0677 10.4541C53.1066 10.4874 53.1259 10.5429 53.1259 10.6207C53.0094 10.6707 52.9512 10.729 52.9512 10.7956C52.9512 10.84 52.9565 10.8678 52.9677 10.8789L53.1427 11.287L53.0928 12.7697L53.1593 12.9779L53.0759 13.4027L53.1427 13.4694L53.1093 13.7776L53.1427 14.2357C53.1427 14.3523 53.1232 14.4328 53.0842 14.4772C53.0455 14.5217 52.9565 14.5855 52.8179 14.6688L52.851 14.9187L53.1427 15.0936V15.2935L53.1093 16.3014C53.1205 16.3514 53.1371 16.4264 53.1593 16.5263C53.1871 16.6263 53.2148 16.7234 53.2426 16.8178C53.276 16.8845 53.2926 16.9456 53.2926 17.0011C53.2926 17.0288 53.2704 17.0872 53.2258 17.176H53.0759C52.9648 17.176 52.8734 17.2676 52.801 17.4509C53.1676 17.5175 53.4398 17.5508 53.6174 17.5508L54.7253 17.5342L55.1167 17.5675L56.3661 17.2093L56.5576 17.1927L57.4905 16.8345L58.1236 16.5763L58.382 16.4763L58.5652 16.3181L59.1815 16.0848L59.6563 15.6184L59.8478 15.5351L59.9477 15.4185L60.0479 15.1103L60.3893 14.9187L60.5808 14.6355L60.9391 14.219L61.0056 14.0191C61.1779 14.0191 61.2888 14.008 61.3387 13.9858C61.3889 13.9636 61.4138 13.9219 61.4138 13.8609C61.4138 13.7831 61.3417 13.7276 61.1972 13.6943C61.3751 13.5166 61.5054 13.3111 61.5888 13.0779C61.6775 12.8391 61.7443 12.5226 61.7886 12.1283C61.822 11.8285 61.8914 11.5425 61.997 11.2704Z" fill="white"/>
<path d="M82.0291 17.6508C82.0291 17.673 82.0179 17.7064 81.9957 17.7508L81.5797 18.0257L81.2729 18.4005H80.2131L80.0466 18.4338L80.0298 18.2839L79.9299 18.0756L79.9467 17.909L79.9299 17.7508C79.8466 17.5953 79.7995 17.4592 79.7883 17.3426H79.655L79.5885 17.1594L79.297 16.593L79.2468 16.3015L78.8221 15.5685C78.7721 15.4685 78.7472 15.3547 78.7472 15.227C78.7528 15.2047 78.7555 15.1853 78.7555 15.1686C78.7611 15.152 78.7638 15.127 78.7638 15.0937C78.6639 15.0437 78.5862 14.9743 78.5306 14.8854C78.3308 14.5523 78.2784 14.7799 78.2396 14.5689C78.1897 14.8188 77.8336 14.8037 77.6894 14.8037H77.656L76.7896 14.6455L76.4816 14.6621L76.2567 14.6288L75.0655 14.7871L74.3658 14.7537L73.991 14.8537L73.6995 14.7537L73.4746 14.6954C73.4025 14.7899 73.3413 14.8509 73.2913 14.8787C73.2414 14.9065 73.1775 14.9203 73.0998 14.9203H73.0498L72.3168 14.8704L72.0419 14.937L71.8906 14.8076C71.7685 14.8354 71.7504 14.7883 71.6006 15.1382L71.4505 15.463L71.3588 15.4964C71.198 15.9239 70.9896 16.3265 70.7342 16.7041L70.7174 16.8791L70.5926 17.0623L70.1345 18.0868C70.1011 18.1868 69.9139 18.1694 69.6973 18.2194L69.3515 18.3338C69.1941 18.4338 68.5444 18.4338 68.4276 18.4338C68.2666 18.4338 68.0472 18.216 67.8696 18.0939L68.1944 17.5275L68.4276 17.2359L68.6192 16.9277L68.7359 16.7445L68.8524 16.5862V16.5196C69.08 16.4863 69.1941 16.3836 69.1941 16.2114V16.0115L69.4521 15.7033L69.8104 14.9203L70.0185 14.6288L70.2517 14.1124L70.5266 13.5876L70.8514 13.0379L71.1931 12.713C71.2153 12.6908 71.2263 12.663 71.2263 12.6297C71.2263 12.5853 71.1985 12.5353 71.1432 12.4798C71.2431 12.4076 71.3152 12.3493 71.3596 12.3049C71.4042 12.2549 71.4456 12.1883 71.4846 12.105L71.3847 11.9467L71.4846 11.7801L71.6179 11.3886C71.6345 11.3553 71.7039 11.2859 71.826 11.1804L71.8094 11.0971L72.1842 10.1392L72.4757 9.35623C72.5313 9.21186 72.6563 9.03416 72.8505 8.82314L72.784 8.63991L72.8339 8.415C72.8673 8.25396 72.8978 8.14291 72.9256 8.08181C72.9589 8.02074 73.0116 7.97632 73.0837 7.94854C73.1615 7.92078 73.2587 7.8958 73.3754 7.87358L73.4254 7.74863L73.342 7.49874C73.3199 7.43212 73.3087 7.38491 73.3087 7.35716C73.3087 7.27942 73.8752 6.88078 73.9418 6.84746L74.8149 6.49976L75.4242 6.8653L75.6321 6.74752C75.7485 6.60313 75.904 6.52261 76.0985 6.50597L76.1984 6.84746H76.2983L76.2649 6.93909L76.3817 7.18898L76.6232 7.49716L76.9315 8.06359L77.0979 8.52169L77.3063 8.89652L77.0979 8.96317C77.0979 9.02424 77.0319 9.077 77.0818 9.12143C77.3728 9.23804 77.4727 9.34631 77.4727 9.44628L77.4561 9.5962L77.6477 9.80444L77.8726 10.1793L77.9891 10.3792L78.0059 10.4458L77.9391 10.6041L77.9725 10.7707L78.0893 10.9289L78.3308 11.1288L78.6222 11.7119L78.7721 11.9701V12.17C78.9888 12.3588 79.097 12.5032 79.097 12.6032C79.097 12.6143 79.086 12.6531 79.0638 12.7198L79.2303 12.8864L79.6051 13.5194C79.6385 13.5694 79.6633 13.6138 79.6801 13.6527C79.7023 13.686 79.7357 13.7443 79.78 13.8276C79.83 13.9053 79.8634 13.9609 79.88 13.9942C79.9745 14.1386 79.869 14.2663 79.88 14.3107C79.8968 14.3551 80.0659 14.3995 80.0715 14.5106C80.266 14.605 80.3632 14.7133 80.3632 14.8355C80.3632 14.8466 80.3547 14.8577 80.3381 14.8688L80.2136 15.227C80.2136 15.2158 80.2248 15.2547 80.247 15.3436L80.6795 15.5185L80.788 15.6684L80.8379 15.8267C80.8601 15.91 80.9517 15.9933 81.1128 16.0766V16.2682L81.396 16.5597L81.6709 17.0178L81.8125 17.1844C81.879 17.2677 81.9319 17.3565 81.9706 17.4509C82.0096 17.5453 82.0291 17.612 82.0291 17.6508ZM77.7644 13.2529L77.6894 13.1862L77.7227 13.1279L77.6894 13.0446H77.5227C77.4561 12.9669 77.4033 12.7559 77.3645 12.4116L77.3479 12.245L77.0314 12.1617L76.6315 11.3704H76.515L76.0069 10.3708L76.0734 10.1793L76.0234 9.97103L75.6321 9.77113L75.0323 8.58001C75.0099 8.51893 75.0538 8.66584 74.8149 8.47149L74.7906 8.72993L74.7241 8.7466C74.6573 8.97982 74.6073 9.12421 74.5742 9.17972C74.5408 9.23526 74.4713 9.313 74.3658 9.41296C74.2215 9.54069 74.1409 9.67116 74.1243 9.80444L74.0909 10.0043L73.7161 10.829C73.6774 10.9289 73.6413 11.015 73.6079 11.0872C73.5745 11.1594 73.5524 11.2066 73.5411 11.2288C73.5302 11.251 73.5107 11.2815 73.4829 11.3204C73.4551 11.3593 73.4246 11.3926 73.3913 11.4204L73.3247 11.5953C73.2801 11.7064 73.2441 11.7758 73.2163 11.8035C73.1885 11.8257 73.1276 11.8396 73.033 11.8452L73.0165 12.0368C72.9943 12.32 72.947 12.5282 72.8749 12.6615C72.8083 12.7947 72.6916 12.9169 72.5249 13.028L72.675 13.2612C72.6083 13.2667 72.5583 13.2862 72.5249 13.3195C72.4918 13.3528 72.464 13.4083 72.4418 13.4861V13.661V13.6777L72.6582 13.6443L72.8498 13.711L72.8832 13.6443L73.033 13.6277L74.1077 13.6943L74.7906 13.6443L75.0655 13.761C75.1045 13.7221 75.1322 13.6999 75.1488 13.6943C75.171 13.6832 75.2322 13.6749 75.3321 13.6693C75.432 13.6582 75.5875 13.6388 75.7985 13.611L76.0234 13.5777L75.9901 13.661L76.0568 13.6943C76.1068 13.6943 76.1677 13.6499 76.2401 13.5611L76.4648 13.5444C76.7592 13.5166 76.9814 13.4972 77.1313 13.4861C77.2812 13.4694 77.3728 13.4583 77.4062 13.4528C77.4396 13.4416 77.4895 13.4194 77.5561 13.3861C77.6282 13.3473 77.6976 13.3028 77.7644 13.2529Z" fill="white"/>
<path d="M96.7497 10.2293C96.7275 10.2848 96.6663 10.3375 96.5664 10.3875C96.6442 10.5597 96.6829 10.6624 96.6829 10.6957L96.6498 11.3787L96.6829 11.9201L96.583 12.3116L96.6164 12.8614L96.5664 13.6277L96.6164 14.0691L96.5664 14.3607L96.5998 15.1437L96.583 15.3685L96.533 15.2852C96.4387 15.3575 96.4614 15.461 96.4614 15.5221C96.4614 15.6331 96.4719 15.7045 96.6329 15.81C96.6775 16.0099 96.6997 16.1626 96.6997 16.2682C96.6997 16.4903 96.6551 16.7013 96.5664 16.9012C96.4831 17.0955 96.5525 17.3114 96.3249 17.6668L95.0477 18.009L94.7229 18.2006L94.6563 18.009L94.2647 17.4093L93.7649 16.7846L93.3901 16.1349L93.2568 15.9599L93.2902 15.7767C93.2902 15.6434 93.1929 15.5018 92.9987 15.3519C92.7265 15.1242 92.5739 14.9854 92.5405 14.9354L92.0824 14.1191L91.8409 13.8276L91.691 13.4028C91.5965 13.1751 91.4188 13.0613 91.1578 13.0613L91.0579 12.8614L90.5746 12.0701L90.4416 11.6286L90.1667 11.3204L90.1167 11.3871L89.9834 11.3038C89.6001 10.654 89.2365 10.2404 88.8921 10.0627C88.9365 9.92383 88.9589 9.82111 88.9589 9.75446C88.9589 9.61565 88.906 9.54622 88.8005 9.54622L88.6173 9.61287C88.5285 9.52402 88.4535 9.47959 88.3923 9.47959L88.2259 9.56289L88.4091 9.95439L88.2091 10.0293L88.2593 10.1626L88.1925 10.5208L88.2259 11.2371L88.1759 11.4787L88.0343 11.5453L88.0509 11.7452L88.1925 12.2283C88.2037 12.2394 88.2091 12.2478 88.2091 12.2533C88.2091 12.2533 88.2091 12.2561 88.2091 12.2616C88.2091 12.3505 88.1399 12.4866 88.0009 12.6698L88.0675 13.0113L88.1425 13.2029V15.6518L88.2424 16.3681C88.2424 16.3736 88.2424 16.3792 88.2424 16.3848C88.2424 16.3903 88.2368 16.4042 88.2259 16.4264L88.126 16.9012L88.1425 17.0011C88.2424 17.0567 88.2924 17.1205 88.2924 17.1927C88.2924 17.2649 88.1564 17.4981 87.8842 17.8924L87.7843 18.0423L86.5843 18.2082C86.4788 18.3359 86.3928 18.3997 86.326 18.3997H86.3094L86.1262 18.3831L85.9846 18.4164L86.0012 18.2082C86.018 18.0527 86.0428 17.95 86.0762 17.9L86.2595 17.6668L86.4011 17.4585L86.2095 17.2919L86.2595 17.1004L86.3594 16.8588C86.3038 16.6922 86.2761 16.5978 86.2761 16.5756C86.2817 16.5645 86.2843 16.5562 86.2843 16.5506C86.2899 16.5395 86.2929 16.5284 86.2929 16.5173L86.4176 16.0758L86.376 15.1179C86.4262 15.0346 86.5122 14.9791 86.6343 14.9513V14.868L86.451 14.6432L86.4844 14.4599L86.451 14.285L86.501 13.8102C86.501 13.8046 86.4983 13.7991 86.4927 13.7935C86.4927 13.788 86.49 13.7824 86.4844 13.7769L86.376 13.4187L86.4345 12.9356L86.4011 12.5941C86.4011 12.483 86.4788 12.3747 86.6343 12.2692L86.6177 12.0693L86.501 11.7944C86.501 11.7389 86.5176 11.6584 86.5509 11.5529C86.451 11.4696 86.4011 11.3807 86.4011 11.2864C86.4011 11.1864 86.4345 11.0143 86.501 10.7699L86.4176 10.6533L86.4011 10.4118L86.326 9.83702C86.326 9.79815 86.3511 9.71764 86.4011 9.59547V9.4039C86.4011 9.06516 86.3706 8.85692 86.3094 8.77918L85.9346 8.31272L86.0012 8.12948L86.2095 8.00454C86.3484 7.9268 86.4454 7.86293 86.501 7.81294C86.5565 7.76299 86.6009 7.69078 86.6343 7.5964L87.7843 7.33057L88.8921 6.54686C88.9143 6.52466 88.9477 6.51355 88.9921 6.51355C89.1198 6.51355 89.217 6.59129 89.2838 6.74677L89.6586 7.47979L89.8084 7.67136L89.95 7.92958L89.9001 7.97954C90.0334 8.11282 90.2084 8.3627 90.4248 8.7292L90.8495 9.44555C90.9441 9.61214 90.9911 9.7093 90.9911 9.73708C90.9911 9.80371 90.9663 9.86478 90.9163 9.92032L91.2577 10.1119L91.2078 10.2618L91.3493 10.4368L91.691 10.9282L91.9408 11.1698L92.0324 11.4446L92.782 12.2442L92.6239 12.3275C92.6517 12.4386 92.6877 12.5136 92.7321 12.5524C92.7764 12.5858 92.8654 12.6135 92.9987 12.6357L93.3901 13.1772L93.2736 13.1938L93.4985 13.3521C93.654 13.4631 93.7539 13.552 93.7983 13.6186C93.8426 13.6853 93.8733 13.7908 93.8899 13.9351L94.0064 14.0517L93.9898 14.1684C93.9898 14.2905 94.0288 14.421 94.1065 14.5599L94.2981 14.6848C94.5369 14.7903 94.5432 15.0125 94.5545 15.0292L94.7409 15.4349L94.8062 14.8688L94.9812 14.4606C94.8644 14.3385 94.8062 14.2302 94.8062 14.1358C94.8062 14.0803 94.8118 14.0414 94.8228 14.0192L94.931 13.6777L94.9812 12.4866L95.1142 12.2283L95.0143 11.9701L95.0811 11.5786V11.562C95.0811 11.4898 95.0143 11.4259 94.881 11.3704L94.8393 9.20473C94.9171 9.19917 94.9673 9.17972 94.9895 9.14641C95.0172 9.10754 95.0365 9.03258 95.0477 8.92152L94.7894 8.72993L94.7562 8.43839C94.7285 8.19406 94.6924 8.03303 94.6478 7.95529C94.609 7.87755 94.5257 7.83868 94.398 7.83868C94.3758 7.74983 94.3646 7.6832 94.3646 7.63877C94.3646 7.43331 94.6034 7.2695 95.0811 7.14733C95.1588 7.03072 95.2254 6.95021 95.2809 6.90578C95.3421 6.86136 96.4053 6.69754 96.5998 6.61425C96.6663 6.7253 96.6997 6.82804 96.6997 6.92243L96.6663 7.164L96.7163 7.34724L96.6997 7.67209L96.7163 8.37177C96.7163 8.5106 96.6997 8.62999 96.6663 8.72993L96.5998 9.07145V9.08812L96.7329 9.63785L96.6997 10.046L96.7497 10.2293Z" fill="white"/>
<path d="M113.247 6.22199L112.832 7.10898L112.947 7.65542L112.281 7.91362L111.973 8.11352C111.906 8.14686 111.839 8.16351 111.773 8.16351H111.756L111.273 8.08021L110.148 8.0469L109.365 7.9636L108.616 8.01358L108.699 8.53834L108.741 8.74658L108.757 9.01311V9.08809L108.666 9.47957L108.683 9.77944L108.649 10.0377L108.699 10.2292C108.566 10.2403 108.48 10.2625 108.441 10.2959C108.408 10.3292 108.388 10.4097 108.383 10.5374C108.566 10.5652 108.666 10.6152 108.683 10.6874L108.649 11.2871V11.6785C108.649 11.8451 108.541 12.0256 108.324 12.22C108.352 12.27 108.377 12.3116 108.399 12.3449C108.422 12.3727 108.455 12.3949 108.499 12.4116C108.549 12.4282 108.599 12.4393 108.649 12.4449L108.699 12.5448C108.627 12.5892 108.577 12.6337 108.549 12.6781C108.527 12.7225 108.51 12.7975 108.499 12.903L108.699 13.1279V13.536V13.8942C108.699 13.9831 108.66 14.0691 108.583 14.1524L108.666 14.3523L108.633 14.5772L108.699 14.8854L108.666 15.127L108.683 15.3269L108.699 15.6684C108.488 15.7572 108.383 15.8822 108.383 16.0432C108.383 16.1765 108.483 16.2959 108.683 16.4014L108.807 17.8007L108.683 17.9007L108.533 17.9757L107.133 17.8757L106.975 17.8924H106.858L106.758 18.009C106.692 17.9646 106.639 17.9424 106.6 17.9424C106.6 17.9424 106.567 17.9534 106.5 17.9757L106.4 17.7508C106.411 17.7174 106.417 17.6897 106.417 17.6675C106.423 17.6508 106.428 17.6341 106.434 17.6175L106.5 17.2427L106.434 16.8012L106.5 16.1515L106.55 15.1936L106.634 14.4773V14.2857L106.792 14.0858L106.583 13.3195L106.667 12.7864L106.617 12.0867L106.583 11.6119L106.567 11.5953C106.567 11.5064 106.62 11.3121 106.725 11.0122L106.667 10.8289C106.545 10.5235 106.484 10.3125 106.484 10.1959V10.1792L106.5 9.9377L106.4 9.51288L106.417 9.27133L106.309 8.66328L106.275 8.45504L106.495 8.20562C106.612 8.13897 106.739 8.14484 106.739 8.08377C106.739 8.02823 106.75 7.99523 106.739 7.96192L106.6 7.83866H106.45L106.275 7.82201L105.901 7.67207L105.151 7.73872L104.01 7.62208L102.777 7.68873L102.577 7.65542C102.438 7.81646 102.313 7.89697 102.202 7.89697H102.152L101.911 7.86364L101.669 7.82201C101.675 7.65542 101.344 7.17561 101.378 7.10898C101.417 7.0368 101.775 6.36638 101.869 6.28864L102.485 5.80551C102.657 5.72777 102.899 5.6889 103.21 5.6889H103.435C103.502 5.84994 103.593 5.93046 103.71 5.93046C103.821 5.93046 103.951 5.86661 104.101 5.73889L104.476 5.7722L105.209 6.01375L105.826 5.98044L106.309 6.09705L107.275 6.14703L107.683 6.37194L107.875 6.38858L107.891 6.32196L108.099 6.3386C108.449 6.36638 108.666 6.38858 108.749 6.40525C108.838 6.4219 108.843 6.06929 108.932 6.14703L109.176 6.37194L109.457 6.50519L109.732 6.48855L110.09 6.3386L110.707 6.35527L111.115 6.27197C111.287 6.32751 111.429 6.35527 111.539 6.35527C112.078 6.35527 112.597 6.23033 113.097 5.98044L113.197 6.03042L113.247 6.22199Z" fill="white"/>
<path d="M53.8569 23.2835C53.8403 23.5667 53.7765 23.7777 53.6653 23.9166L53.3071 24.4079L52.9489 25.091L52.674 25.2743L52.3908 26.0239L52.266 26.1489L52.0828 26.4238L51.8744 26.5569C51.7967 26.6346 51.7579 26.7041 51.7579 26.7652V26.9819L51.533 27.3233L51.3163 27.7315L51.1747 27.8397L50.8333 28.4977C50.7887 28.5976 50.6362 28.7421 50.3752 28.931V29.0404L50.3252 29.3058L50.2002 29.4722L49.9667 29.917L49.6085 30.0719L49.4752 30.1887L49.4586 30.5135C49.4474 30.68 49.4252 30.7967 49.3919 30.8632C49.3641 30.93 49.2946 31.0134 49.1837 31.1133C49.2115 31.2241 49.242 31.3019 49.2754 31.3465C49.3085 31.3908 49.3697 31.4381 49.4586 31.4881L49.4087 32.321L49.3002 32.2876L49.1837 32.3793L49.2337 32.8209L49.367 32.8374L49.4087 33.6036L49.2337 33.6538V33.7954C49.3948 33.9119 49.4752 34.0201 49.4752 34.1203C49.4752 34.1368 49.4586 34.1868 49.4252 34.2701H49.2503L48.9829 34.6532L48.6174 34.9781C48.5119 35.0058 48.3132 34.731 48.13 34.7865C47.9523 34.8421 47.2493 34.4782 47.1937 34.4782C47.0772 34.4782 46.9688 34.409 46.8689 34.2701L46.9022 34.0703L47.0022 33.4537L47.0604 33.0455V32.9873L47.0187 32.3627C47.0187 32.3237 47.0604 32.2433 47.1437 32.121L47.1937 31.9879L47.1437 31.9379L46.9356 31.9128L46.9688 31.713L47.1104 31.5215L47.1437 31.3382L47.1272 31.0134L47.1437 30.755H47.277C47.277 30.6385 47.2658 30.5579 47.2437 30.5135C47.2271 30.4636 47.1827 30.408 47.1104 30.3468L47.2105 30.2803L47.1272 30.0888L46.719 29.7639L46.3442 29.2889C46.2443 29.2336 46.1358 29.2002 46.0193 29.189C46.0193 28.9502 45.9833 28.7947 45.9111 28.7226L45.3197 28.1813L45.3029 27.7064C45.3029 27.6398 45.2751 27.5816 45.2198 27.5316C45.1698 27.4761 45.1169 27.4483 45.0613 27.4483C45.0448 27.4483 44.9753 27.4593 44.8532 27.4814C44.8476 27.3372 44.8225 27.2343 44.7782 27.1734C44.7338 27.1122 44.6283 27.0401 44.4616 26.9568L44.3451 27.0067L44.1202 26.7486L43.4037 25.9988L43.1291 25.624L42.979 25.4493C43.14 25.4324 43.2205 25.3769 43.2205 25.2826C43.2205 25.227 43.1956 25.1797 43.1456 25.141C43.1013 25.0966 43.0457 25.0742 42.979 25.0742C42.9624 25.0742 42.8929 25.0854 42.7708 25.1076C42.4209 24.6633 42.2459 24.3107 42.2459 24.0497C42.2459 23.9498 42.271 23.8472 42.321 23.7417C42.3709 23.6361 42.8293 22.9197 42.8905 22.8919L43.6696 23.1251L44.0778 22.9087L44.186 22.8919L44.3025 22.9253L44.4358 22.9087L44.5274 23.0086L44.4026 23.3834L44.4358 23.5167V23.6583L44.7774 24.0497L44.8106 24.2164L44.794 24.5078L45.0689 24.7328L45.0024 24.9828C44.969 25.0715 44.9522 25.1466 44.9522 25.2075C44.9522 25.2465 44.9856 25.3047 45.0523 25.3825L45.3938 25.3242C45.627 25.3242 45.7798 25.3881 45.8519 25.5158L46.0934 25.9405L46.2601 26.2154L46.3183 26.3821L46.1933 26.4738C46.321 26.6624 46.4295 26.7569 46.5182 26.7569C46.5403 26.7513 46.5598 26.7486 46.5764 26.7486C46.5932 26.743 46.621 26.7401 46.6598 26.7401C46.8652 27.0179 47.0319 27.226 47.1596 27.365C47.2873 27.5039 47.4705 27.6676 47.7094 27.8563L47.5926 27.923C47.6594 28.0951 47.762 28.2201 47.9009 28.2978L47.9843 28.2145L48.4673 28.6892L48.6174 28.6763C48.623 28.6707 48.5438 28.6088 48.6771 28.4977L48.651 28.3144L49.1674 27.5982L49.3672 27.3732L49.8088 26.5737L50.2419 25.9905L50.3752 25.5657L50.5667 25.2075L50.6834 24.7162L51.0249 24.1998L51.0748 24.0331L51.4996 24.0831C51.494 23.961 51.4718 23.8803 51.4331 23.8416C51.3941 23.8026 51.3137 23.7748 51.1913 23.7582L51.2664 23.5918C51.3663 23.3474 51.4552 23.1975 51.533 23.1419L51.8744 22.9253C52.0443 22.8139 52.8821 22.8276 52.8821 22.8276C53.3022 22.9421 53.6507 23.2589 53.7319 23.2501C53.7265 23.2501 53.7679 23.2613 53.8569 23.2835Z" fill="white"/>
<path d="M66.2176 30.4967C66.2176 30.63 66.1899 30.7884 66.1343 30.9717L65.7929 30.9549L65.6762 31.0048L65.7095 31.2298C65.8316 31.2965 65.8928 31.3991 65.8928 31.5381C65.8928 31.7657 65.8706 31.9129 65.826 31.9794L65.3701 32.6876L65.2202 32.9374L64.7372 33.2622L64.3456 34.0035L64.1708 34.0952L63.7558 34.525L62.7713 34.9532L62.1216 35.1613C61.9661 35.2281 61.8467 35.2613 61.7636 35.2613C61.7412 35.2613 61.6829 35.2447 61.5886 35.2113C61.4275 35.3003 61.2416 35.3446 61.0305 35.3446L60.6389 35.328H59.881L59.6144 35.2613L58.6233 35.1947L58.0735 34.8865L57.8403 34.9364L57.9402 35.0198L57.6987 34.9864L57.4655 34.9532L56.6408 34.245L56.1995 34.1868L55.7331 33.9036C55.5386 33.7647 55.4413 33.6677 55.4413 33.6122C55.4413 33.501 55.6275 33.0819 55.7162 32.9208C55.8052 32.7541 55.6775 32.0961 55.7996 31.9628C55.9551 31.7796 56.13 31.674 56.3243 31.6463L56.4493 32.2711C56.566 32.3267 56.6408 32.3737 56.6742 32.4127C56.7076 32.4514 56.7534 32.5959 56.7812 32.7124L56.9574 32.6125L57.1241 32.7207L57.2657 32.9208L57.8237 33.0789L58.3901 33.329L59.5311 33.5705C59.7255 33.6926 59.8394 33.7537 59.8727 33.7537C59.9505 33.7537 59.9978 33.6982 60.0143 33.5871L60.1308 33.5705L61.1721 33.637L61.497 33.4706L61.6802 33.5371L61.9883 33.4706L62.3465 33.3456C62.5466 33.2788 62.6882 33.1901 62.7713 33.0789L63.013 32.7541L63.2392 32.5976C63.2835 32.5199 63.4366 32.5199 63.4809 32.3366C63.6976 32.3366 63.8058 32.2672 63.8058 32.1283L63.7724 31.9618L63.7558 31.7535L63.8891 31.6036L64.2625 30.9049H64.3456L64.3124 30.4136L64.1292 30.1029L64.0624 29.9114L63.8209 29.8948L63.2545 29.6806L62.6048 29.7639L62.4381 29.5807L62.1966 29.4391L62.0217 29.5307L61.9717 29.6138L60.8307 29.5639L60.5724 29.2558L60.3726 29.5139L60.1808 29.4722L59.7061 29.3723C59.3895 29.3114 59.0785 29.4808 58.9065 29.4306C58.7398 29.3752 58.5982 29.3058 58.4817 29.2224L58.066 28.8311L57.9663 28.6222C57.9719 28.6222 57.8737 28.5172 57.7738 28.5394C57.5737 28.3895 56.877 27.8314 56.8158 27.7481C56.7602 27.6594 56.6937 27.4871 56.616 27.2317L56.6825 27.2151L56.3828 26.6154L56.3576 26.3488L56.3243 26.0739V25.9905L56.4327 25.6491L56.5326 25.4576L56.7076 24.8161L56.9822 24.6163C57.1102 24.5218 57.174 24.3607 57.174 24.1331L57.3239 24.0166L58.4235 23.3669L58.8149 23.1337L59.4563 22.8088L60.8322 22.4452L61.0403 22.3787L61.2569 22.3453L61.7733 22.287L62.0231 22.1871L62.8646 22.287L63.2394 22.2705L63.4726 22.3621L63.8891 22.462C64.1723 22.5342 64.4872 23.3973 64.4872 23.5085C64.4872 23.5528 64.4818 23.5918 64.4706 23.6249C64.3595 23.6639 64.3012 23.6861 64.2956 23.6917L64.0792 23.8833C63.9459 23.9776 63.7236 24.0665 63.4127 24.1499L63.2377 24.0497L62.7964 23.7249L62.5549 23.6917L61.8718 23.5584L61.4804 23.575L61.0223 23.5918L60.2059 24.0166L59.6227 24.308L59.2313 24.6163L59.0398 24.8327L58.6815 25.4658L58.3567 25.6908L58.2902 25.8906L58.5151 26.0156C58.4927 26.0712 58.4817 26.1321 58.4817 26.1989C58.4817 26.2544 58.5095 26.3461 58.5651 26.4738L58.2402 26.6402L58.3233 26.8318L58.4983 26.8985L58.8066 26.9485L59.1314 27.2234L59.8145 27.5317L59.9978 27.6981L60.5807 27.6481L61.0888 27.6981L61.1222 27.8063L61.3303 27.7732L61.622 27.7398C61.6773 27.7398 61.7163 27.7454 61.7385 27.7564L62.1801 27.8563L62.4048 27.9065C62.4437 28.1675 62.5244 28.2111 62.6299 28.2111L63.0545 28.0395L63.496 28.0729L63.8209 28.0563C63.9985 28.0563 64.3263 28.1424 64.4872 28.2813L64.9122 28.6561C64.9175 28.6561 64.9231 28.6561 64.9287 28.6561C64.9397 28.6561 64.9621 28.6561 64.9953 28.6561C65.0343 28.6505 65.0647 28.6449 65.0869 28.6393H65.1037C65.1814 28.6393 65.6567 28.9337 65.9676 29.3224L66.1009 29.489L66.1343 29.714L66.2176 30.4967Z" fill="white"/>
<path d="M40.7324 28.2313L40.6493 28.5893L40.6824 28.9975C40.6659 29.2085 40.602 29.3667 40.4909 29.4722L40.3576 29.6472L40.0162 29.7305C39.9828 29.7639 39.9494 29.8443 39.9162 29.972L39.9494 30.0054H40.0327L39.9828 29.8972L40.1495 30.022L40.0661 30.1387L40.0162 30.3468L39.8829 30.5635L39.6913 30.8384L39.4081 31.6045L39.0833 32.1209L38.8001 32.321L38.0944 32.8472C37.9501 32.9748 37.6131 33.5122 37.5075 33.54L36.891 33.7481L36.7411 33.8149C36.7411 33.9204 36.7133 34.0008 36.6578 34.0564L36.4828 34.1229L35.5082 34.5979L34.917 34.981C34.7226 35.1031 34.5337 35.1642 34.3504 35.1642C34.2839 35.1642 34.1979 35.1364 34.0924 35.0809C33.9868 35.1474 33.7731 35.2337 33.451 35.3392L32.9679 35.4891L32.6431 35.5556L31.96 35.6056L31.7768 35.6389L31.3352 35.4723C31.1132 35.5946 30.9021 35.6611 30.7023 35.6723L30.6523 35.6056C30.5022 35.6056 30.3774 35.5612 30.2775 35.4723L29.9692 35.4391V35.6389C29.7804 35.7445 29.5862 35.7971 29.0196 35.4391C28.8919 35.4391 27.9431 35.4057 27.8098 35.3723C27.3434 35.2446 27.0768 35.1808 27.0103 35.1808C26.8826 35.1808 26.8187 35.1586 26.8187 35.1143V35.0643L26.9437 34.9227L27.1436 34.8728C27.3378 34.8172 27.4518 34.7894 27.485 34.7894L27.5518 34.806L27.7516 33.9618C27.8515 33.8507 27.9015 33.7759 27.9015 33.7369V33.4788L28.0014 33.1206L28.0182 32.9539V32.854L28.1264 32.7792C28.0431 32.6902 28.0014 32.5876 28.0014 32.4709L28.0431 31.9793L28.0599 31.7547L28.2431 31.5714C28.1764 31.4712 28.143 31.3964 28.143 31.3465L28.1264 31.0799L28.0182 30.8717L28.0431 30.3968V29.8138L28.1764 29.539C28.1985 29.45 28.2098 29.3891 28.2098 29.3557C28.2098 29.2611 28.1459 29.1695 28.0182 29.0808L28.0014 28.756V28.6061C28.0014 28.5393 28.0599 28.4645 28.1764 28.3812L28.1932 27.923H27.9848L27.9349 27.748L27.9682 27.3067L27.8849 26.657L27.9514 26.4737L27.8349 26.232L27.8181 25.4158L27.5934 25.1575L27.785 24.7827L27.8016 24.6579L27.7516 24.183L27.735 23.4C27.6127 23.3834 27.4989 23.35 27.3934 23.3001L27.1684 23.2167V22.9752L27.4601 22.8587H28.1098L29.2862 22.7171C29.3917 22.6725 29.5389 22.6504 29.7277 22.6504L30.2775 22.6338L30.5773 22.7337L30.7856 22.6672L30.9355 22.7588H31.2104L31.5352 22.7754L31.8433 22.8088H31.8601L32.135 22.7588L32.6931 22.9418L33.3593 22.9586L33.5843 23.0586L34.5171 23.1668L35.0835 23.3334L35.75 23.4499L36.2081 23.6083L36.3997 23.6749L36.3663 23.8498L36.4662 23.9498L36.3997 24.0497L36.4328 24.0831L36.3829 24.1498L36.4328 24.133L36.7245 24.0331L36.9578 23.9666L37.1659 24.0331L37.4742 24.1164L37.6574 24.2415L37.674 24.4245L37.749 24.4413L38.0656 24.4245C38.1711 24.4245 38.2903 24.5217 38.4236 24.7162H38.5486C38.6929 24.7162 38.9095 25.3269 39.1983 25.5323C39.5093 25.7434 39.7703 25.9934 39.9813 26.2822L39.8563 26.3987L39.8814 26.5237L39.9813 26.6901L40.148 26.8069C40.2033 26.8734 40.2562 27.0011 40.3062 27.19C40.2006 27.2343 40.2876 27.2972 40.2876 27.364C40.2767 27.3527 40.2876 27.3973 40.2876 27.364L40.4061 27.7814C40.4283 27.8258 40.7324 28.1813 40.7324 28.2313ZM38.9234 27.748C38.8179 27.7037 38.7514 27.662 38.7236 27.623C38.6958 27.5787 38.6763 27.5009 38.6653 27.3898L38.5986 27.3732V27.2733C38.5986 27.2177 38.5652 27.1317 38.4987 27.015L38.3405 26.7569L38.3571 26.6736L38.1904 26.5237L37.7822 26.2154C37.7378 26.1876 37.6935 26.1516 37.6491 26.1072C37.6045 26.0626 37.5519 26.0044 37.4907 25.9322C37.4352 25.8545 37.3713 25.7712 37.2992 25.6824H37.1159C36.977 25.6824 36.8632 25.6712 36.7745 25.6491L35.9749 25.2243L35.6167 25.1575L35.3918 25.0576L35.2002 25.0159L35.1668 24.8327C35.017 24.7995 34.928 24.7827 34.9002 24.7827C34.8447 24.7827 34.7754 24.8161 34.6921 24.8826C34.5144 24.7883 34.3729 24.7328 34.2673 24.7162C34.1506 24.694 34.0673 24.6801 34.0173 24.6745C33.973 24.6633 33.9369 24.6494 33.9091 24.6328C33.8869 24.6107 33.8562 24.58 33.8175 24.5412L33.6842 24.4079C33.5621 24.4747 33.4427 24.5078 33.3259 24.5078C33.1817 24.5078 33.0679 24.4747 32.9845 24.4079L32.7847 24.2663L32.2683 24.183L31.0771 24.0331L30.4939 24.0831L30.3774 24.0165L30.2941 24.0831L30.2025 24.2497L30.0192 24.1664L29.9858 24.4079C29.9749 24.6467 29.9441 24.8271 29.8942 24.9494L29.9359 25.1244C30.0136 25.3907 30.0526 25.5435 30.0526 25.5823L30.0358 25.7324L29.9359 25.6656H29.8776C29.8888 25.8879 29.9359 26.0655 30.0192 26.1988V26.4321L29.911 26.4152C29.8554 26.4652 29.8055 26.4903 29.7609 26.4903H29.6778L29.6444 26.657L29.7609 26.8069C29.8776 26.8512 29.9554 26.8929 29.9941 26.9319C30.0331 26.965 30.0526 27.0206 30.0526 27.0983C29.9359 27.1483 29.8776 27.2065 29.8776 27.2733C29.8776 27.3177 29.8832 27.3454 29.8942 27.3566L30.0692 27.7648L30.0192 29.2475L30.0857 29.4556L30.0026 29.8804L30.0692 29.9472L30.0358 30.2552L30.0692 30.7133C30.0692 30.8301 30.0497 30.9105 30.0109 30.9548C29.9719 30.9994 29.8832 31.0633 29.7443 31.1464L29.7777 31.3964L30.0692 31.5714V31.7712L30.0358 32.7792C30.047 32.8291 30.0636 32.9039 30.0857 33.0041C30.1135 33.104 30.1413 33.201 30.1691 33.2956C30.2025 33.3621 30.219 33.4233 30.219 33.4788C30.219 33.5066 30.1969 33.5648 30.1525 33.6538H30.0026C29.8915 33.6538 29.7999 33.7454 29.7277 33.9284C30.0943 33.9952 30.3662 34.0286 30.5439 34.0286L31.6517 34.0118L32.0434 34.0452L33.2928 33.6869L33.4843 33.6704L34.4172 33.3121L35.0503 33.0541L35.3084 32.9539L35.4917 32.7957L36.108 32.5625L36.583 32.0961L36.7745 32.0127L36.8744 31.8962L36.9743 31.588L37.3157 31.3964L37.5075 31.1132L37.8655 30.6968L37.9323 30.4967C38.1044 30.4967 38.2155 30.4857 38.2654 30.4635C38.3154 30.4414 38.3405 30.3997 38.3405 30.3385C38.3405 30.2608 38.2681 30.2052 38.1239 30.1718C38.3015 29.9942 38.4321 29.7887 38.5152 29.5555C38.6042 29.3167 38.6707 29.0004 38.7153 28.6061C38.7484 28.3061 38.8179 28.0202 38.9234 27.748Z" fill="white"/>
<path d="M94.2646 33.461L94.1564 33.819L93.9731 33.8024C93.9064 33.8024 94.1069 34.7767 94.0791 34.8101L93.8018 35.106L93.5769 35.2641L93.5104 35.3475L93.2021 35.3141L92.8438 35.4891H92.8273L92.4191 35.364L92.3691 35.3475L91.428 35.3806L91.1614 35.3475L91.0697 35.2142C90.731 35.2807 90.5394 35.3141 90.4948 35.3141L90.1868 35.2975L89.9784 35.3307L89.9119 35.1642H89.812L89.7287 35.1808L89.4372 35.3307L87.7961 35.3475L87.5546 35.464C87.3714 35.3419 87.2298 35.2807 87.1299 35.2807L87.0465 35.2975L86.6218 35.414L86.1388 35.3141L84.8523 34.9727L83.6494 35.364C83.5992 35.364 83.3911 35.2975 83.0245 35.1642L83.1079 34.9727L83.3077 34.4977L83.2529 33.6526L83.3445 33.2444V32.6198L83.3945 32.378L83.3611 30.4457L83.3945 29.9542L83.3777 29.7709L83.3277 29.5794L83.6694 29.5628C83.6082 29.4295 83.5553 29.335 83.511 29.2794C83.4666 29.2241 83.3889 29.1546 83.2777 29.0713L83.2361 28.9297L83.2777 28.3134L83.2027 27.2555L83.2777 26.8473L83.3111 26.6806L83.1362 26.6307L83.0696 26.4559L83.0362 25.9144L82.9363 25.7395L82.9195 25.6561L82.9363 25.448L83.0028 25.3481L83.461 25.4646L83.3277 25.3481C83.2444 25.2869 83.2027 25.2313 83.2027 25.1814C83.2027 25.1536 83.2139 25.1063 83.2361 25.0398L83.1028 24.9898L82.9363 25.0398C82.9195 24.7676 82.9003 24.5873 82.8781 24.4983C82.8613 24.4096 82.8279 24.3567 82.7779 24.3401L82.4531 24.2068L82.7779 23.6697L82.678 22.9854C82.717 22.9411 82.8086 22.8911 82.9529 22.8356L83.1113 22.7856C83.3833 22.6579 83.4895 22.6106 83.6338 22.6106C83.6394 22.6106 83.7471 22.5941 83.7525 22.5941C83.7581 22.5941 84.2321 22.8056 84.243 22.8168L86.0254 22.819L86.5918 22.8689L86.9083 22.9689C87.1138 22.8911 87.2524 22.8521 87.3248 22.8521C87.358 22.8521 87.3804 22.8577 87.3914 22.8689L88.6491 23.0022L89.7569 22.9355L90.19 23.0605L90.44 23.0022V22.9021C90.8231 22.8633 91.1036 22.8134 91.2813 22.7522C91.5257 22.6579 91.6726 22.6106 91.7228 22.6106L91.8893 22.644C91.8615 22.7717 91.8254 22.8633 91.7811 22.9189C91.7421 22.9689 91.5118 24.0735 91.3729 24.1403C91.3617 24.2402 91.3424 24.3097 91.3146 24.3484C91.2869 24.3874 91.2062 24.4427 91.0731 24.5151C90.7844 24.6484 90.5455 24.715 90.3567 24.715H90.265L89.8237 24.6816L89.4486 24.7315L88.6825 24.6484L88.5075 24.6316C88.352 24.5317 88.1995 24.4817 88.0493 24.4817C87.9329 24.615 87.7162 24.6816 87.3996 24.6816L87.1498 24.665L87.1082 24.5151L86.9415 24.5651L86.7 24.665L85.559 24.5651L85.3757 24.84L85.4423 24.9065V24.9733L85.4756 25.4146L85.4089 26.0643L85.4423 26.3058L85.4588 26.4891L85.6255 26.539L86.7668 26.6475C86.8445 26.6475 86.9583 26.703 87.1082 26.8139L87.3665 26.764C87.522 26.7084 87.6358 26.6806 87.7079 26.6806H87.7245L88.6159 26.7306L89.1406 26.7474H89.6153C89.7153 26.7474 89.7986 26.7391 89.8651 26.7223C89.9375 26.7057 90.0152 26.6753 90.0986 26.6307L90.7315 26.7474L90.8813 26.714L91.2396 26.6307L91.8893 26.6141L92.5724 26.5225C92.6501 26.5446 92.7278 26.5863 92.8056 26.6475L92.9806 26.539C93.0914 26.4503 93.1943 26.4057 93.2886 26.4057L93.4719 26.4225L93.6634 26.4057V26.664L93.3152 27.8085L92.7388 28.23C92.6779 28.28 92.6196 28.3049 92.5641 28.3049H92.5307L91.9726 28.23L91.2562 28.2549L90.8648 28.1633L89.4655 28.2549L89.2071 28.23C89.1462 28.1189 89.0768 28.0634 88.999 28.0634C88.9547 28.0634 88.9213 28.069 88.8991 28.0802L88.5243 28.23L87.433 28.1133L86.9001 28.3049L86.525 28.1967L86.217 28.3882L85.577 28.4881H85.3923L85.509 28.6382L85.3923 28.9962C85.4756 29.1517 85.5256 29.2655 85.5422 29.3379L85.509 29.6128L85.5756 30.379V30.3958C85.5756 30.4679 85.5144 30.5817 85.3923 30.7372C85.5366 30.9205 85.6089 31.0703 85.6089 31.1871C85.6089 31.2202 85.5977 31.2592 85.5756 31.3036L85.3506 31.7783L85.5921 32.2033L85.6436 33.2943L85.9019 33.3443L87.0263 33.7359L87.4011 33.6859C87.4901 33.6859 87.6148 33.7303 87.7759 33.819C87.887 33.7191 87.9675 33.6691 88.0174 33.6691H88.0508L88.8172 33.819L89.2837 33.769L89.6916 33.8524L90.683 33.7859L90.9662 33.8358L91.4492 33.8524L91.6158 33.9106L91.5659 33.7859L91.7574 33.7525L92.5404 33.7359L92.7069 33.6691L93.6814 33.4942C93.7092 33.4888 93.7731 33.4749 93.8732 33.4525C93.9731 33.4249 94.0341 33.4111 94.0565 33.4111C94.0896 33.4111 94.1591 33.4276 94.2646 33.461Z" fill="white"/>
<path d="M108.072 23.2669C108.056 23.5501 107.992 23.7609 107.881 23.8998L107.522 24.3914L107.164 25.0742L106.889 25.2575L106.606 26.0073L106.481 26.1321L106.298 26.407L106.09 26.5403C106.012 26.618 105.973 26.6875 105.973 26.7487V26.9651L105.748 27.3067L105.532 27.7147L105.39 27.8231L105.049 28.4811C105.004 28.581 104.852 28.7255 104.591 28.9141V29.0236L104.541 29.289L104.416 29.4556L104.182 29.9001L103.824 30.0554L103.691 30.1719L103.674 30.4967C103.663 30.6634 103.641 30.7801 103.607 30.8467C103.579 30.9132 103.51 30.9965 103.399 31.0965C103.427 31.2076 103.457 31.2853 103.491 31.3297C103.524 31.3743 103.585 31.4213 103.674 31.4713L103.624 32.3042L103.516 32.2711L103.399 32.3627L103.449 32.804L103.582 32.8209L103.624 33.587L103.449 33.637V33.7786C103.61 33.8953 103.691 34.0035 103.691 34.1034C103.691 34.1203 103.674 34.1702 103.641 34.2533H103.466H103.299L103.084 34.7687C102.978 34.7965 102.414 34.835 102.231 34.8906C102.053 34.9461 101.465 34.4617 101.409 34.4617C101.293 34.4617 101.184 34.3922 101.084 34.2533L101.118 34.0535L101.218 33.4372L101.276 33.029V32.9707L101.234 32.3459C101.234 32.3071 101.276 32.2265 101.359 32.1044L101.409 31.9711L101.359 31.9211L101.151 31.8963L101.184 31.6962L101.326 31.5047L101.359 31.3214L101.343 30.9965L101.359 30.7385H101.492C101.492 30.6217 101.481 30.5413 101.459 30.4967C101.442 30.4468 101.398 30.3914 101.326 30.3303L101.426 30.2635L101.343 30.072L100.934 29.7471L100.56 29.2724C100.46 29.2168 100.351 29.1834 100.235 29.1725C100.235 28.9336 100.199 28.7782 100.127 28.706L99.5351 28.1645L99.5182 27.6898C99.5182 27.623 99.4905 27.5648 99.4351 27.5148C99.3852 27.4593 99.3323 27.4315 99.2767 27.4315C99.2602 27.4315 99.1907 27.4427 99.0686 27.4649C99.063 27.3206 99.0379 27.2178 98.9936 27.1566C98.9492 27.0957 98.8437 27.0235 98.677 26.9402L98.5605 26.9902L98.3356 26.7318L97.6191 25.9822L97.3445 25.6074L97.1943 25.4324C97.3554 25.4159 97.4358 25.3603 97.4358 25.266C97.4358 25.2104 97.411 25.1632 97.361 25.1244C97.3167 25.0798 97.2611 25.0576 97.1943 25.0576C97.1778 25.0576 97.1083 25.0688 96.9862 25.091C96.6363 24.6468 96.4613 24.2941 96.4613 24.0331C96.4613 23.9332 96.4864 23.8304 96.5364 23.7249C96.5863 23.6193 97.0447 22.9031 97.1059 22.8753L97.885 23.1085L98.2932 22.8919L98.4014 22.8753L98.5179 22.9087L98.6512 22.8919L98.7428 22.9921L98.618 23.3669L98.6512 23.5002V23.6418L98.9928 24.0331L99.026 24.1998L99.0094 24.4913L99.2843 24.7162L99.2175 24.966C99.1844 25.055 99.1676 25.1298 99.1676 25.1909C99.1676 25.2299 99.2009 25.2882 99.2677 25.3659L99.6091 25.3077C99.8424 25.3077 99.9952 25.3715 100.067 25.4992L100.309 25.924L100.475 26.1989L100.534 26.3653L100.409 26.4569C100.536 26.6458 100.645 26.7401 100.734 26.7401C100.756 26.7348 100.775 26.7318 100.792 26.7318C100.809 26.7262 100.836 26.7236 100.875 26.7236C101.081 27.0011 101.247 27.2095 101.375 27.3484C101.503 27.4871 101.686 27.6508 101.925 27.8397L101.808 27.9065C101.875 28.0785 101.977 28.2035 102.116 28.2813L102.2 28.1979L102.683 28.6726L102.833 28.6595C102.838 28.6541 102.759 28.5922 102.892 28.4811L102.866 28.2978L103.383 27.5816L103.583 27.3567L104.024 26.5569L104.457 25.9739L104.591 25.5492L104.782 25.1909L104.899 24.6994L105.24 24.183L105.29 24.0166L105.715 24.0665C105.709 23.9442 105.687 23.8638 105.648 23.825C105.609 23.786 105.529 23.7582 105.407 23.7417L105.482 23.575C105.582 23.3308 105.671 23.1807 105.748 23.1251L106.09 22.9087C106.26 22.7973 107.097 22.8107 107.097 22.8107C107.518 22.9253 107.866 23.2421 107.947 23.2336C107.942 23.2336 107.983 23.2445 108.072 23.2669Z" fill="white"/>
<path d="M79.5118 30.755C79.5118 30.8883 79.484 31.0465 79.4284 31.2298L79.087 31.2132L78.9703 31.2631L79.0037 31.4881C79.1258 31.5546 79.1869 31.6574 79.1869 31.7961C79.1869 32.024 79.1648 32.1712 79.1204 32.2377L78.6644 32.9456L78.5146 33.1957L78.0313 33.5205L77.6399 34.2618L77.465 34.3535L77.0499 34.7831L76.0657 35.2113L75.416 35.4196C75.2605 35.4862 75.1411 35.5196 75.0577 35.5196C75.0355 35.5196 74.9773 35.5027 74.8827 35.4696C74.7217 35.5583 74.5357 35.6029 74.3247 35.6029L73.9333 35.5861H73.1752L72.9088 35.5196L71.9174 35.4528L71.3677 35.1448L71.1344 35.1947L71.2346 35.2781L70.9928 35.2447L70.7596 35.2113L69.9352 34.5033L69.4936 34.4451L69.0272 34.1619C68.8327 34.023 68.7357 33.9258 68.7357 33.8702C68.7357 33.7593 68.9217 33.3399 69.0106 33.1788C69.0993 33.0124 68.9716 32.3544 69.0937 32.2211C69.2492 32.0379 69.4242 31.9323 69.6186 31.9046L69.7434 32.5291C69.8601 32.5847 69.9352 32.632 69.9683 32.6707C70.0017 32.7097 70.0478 32.854 70.0753 32.9707L70.2515 32.8708L70.4182 32.979L70.5598 33.1788L71.1179 33.3372L71.6842 33.587L72.8255 33.8285C73.0197 33.9509 73.1337 34.0118 73.1669 34.0118C73.2446 34.0118 73.2919 33.9562 73.3085 33.8454L73.4252 33.8285L74.4663 33.8953L74.7911 33.7286L74.9744 33.7954L75.2827 33.7286L75.6409 33.6036C75.8407 33.5371 75.9823 33.4481 76.0657 33.3372L76.3072 33.0124L76.5333 32.8557C76.5779 32.778 76.7307 32.7782 76.7751 32.5949C76.9917 32.5949 77.0999 32.5255 77.0999 32.3866L77.0668 32.2199L77.0499 32.0118L77.1832 31.8619L77.5566 31.1632H77.6399L77.6066 30.6717L77.4233 30.3612L77.3568 30.1697L77.115 30.1529L76.5487 29.9386L75.899 30.022L75.7325 29.8387L75.4908 29.6971L75.316 29.7888L75.2661 29.8721L74.1248 29.8222L73.8665 29.5139L73.6667 29.7722L73.4751 29.7305L73.0004 29.6306C72.6839 29.5694 72.3729 29.7388 72.2006 29.6889C72.0342 29.6333 71.8926 29.5638 71.7758 29.4807L71.3601 29.0891L71.2607 28.8805C71.2663 28.8805 71.1678 28.7755 71.0679 28.7977C70.8681 28.6478 70.1711 28.0897 70.1099 28.0064C70.0544 27.9174 69.9878 27.7454 69.9101 27.49L69.9766 27.4732L69.6769 26.8734L69.6518 26.6071L69.6186 26.3322V26.2488L69.7268 25.9072L69.8268 25.7156L70.0017 25.0742L70.2766 24.8744C70.4043 24.7801 70.4682 24.619 70.4682 24.3914L70.618 24.2746L71.7176 23.6249L72.109 23.3917L72.7504 23.0669L74.1263 22.7035L74.3347 22.6367L74.5511 22.6036L75.0675 22.5451L75.3175 22.4452L76.1587 22.5451L76.5336 22.5285L76.7668 22.6202L77.1832 22.7201C77.4664 22.7922 77.7815 23.6556 77.7815 23.7665C77.7815 23.8111 77.7759 23.8499 77.7647 23.8832C77.6538 23.922 77.5953 23.9442 77.59 23.9498L77.3733 24.1413C77.24 24.2359 77.018 24.3246 76.7071 24.4079L76.5321 24.308L76.0905 23.9832L75.849 23.9498L75.1659 23.8165L74.7745 23.8333L74.3164 23.8499L73.5 24.2746L72.9171 24.5663L72.5255 24.8744L72.3339 25.091L71.9759 25.7241L71.6511 25.9488L71.5843 26.1489L71.8092 26.2737C71.7871 26.3292 71.7758 26.3904 71.7758 26.4569C71.7758 26.5125 71.8036 26.6041 71.8592 26.7318L71.5343 26.8985L71.6177 27.0901L71.7927 27.1566L72.1007 27.2066L72.4255 27.4814L73.1086 27.7897L73.2919 27.9564L73.8751 27.9064L74.3832 27.9564L74.4163 28.0646L74.6247 28.0312L74.9161 27.9981C74.9717 27.9981 75.0104 28.0034 75.0329 28.0147L75.4742 28.1146L75.6991 28.1645C75.7379 28.4255 75.8185 28.4691 75.9241 28.4691L76.3488 28.2978L76.7902 28.3312L77.115 28.3144C77.2929 28.3144 77.6204 28.4007 77.7815 28.5393L78.2063 28.9141C78.2119 28.9141 78.2175 28.9141 78.2229 28.9141C78.2341 28.9141 78.2562 28.9141 78.2896 28.9141C78.3284 28.9088 78.3591 28.9032 78.3813 28.8976H78.3978C78.4756 28.8976 78.951 29.192 79.262 29.5806L79.3953 29.7471L79.4284 29.972L79.5118 30.755Z" fill="white"/>
<path d="M17.4947 24.2349C14.601 24.2349 12.2552 26.5544 12.2552 29.4159C12.2552 32.2772 14.601 34.5969 17.4947 34.5969C18.0587 34.5969 18.6018 34.4461 19.1109 34.2828V34.5969L19.2685 34.7147C18.7563 34.8648 18.0562 35.0288 17.4947 35.0288C14.3599 35.0288 11.8185 32.5158 11.8185 29.4159C11.8185 26.3161 14.3599 23.8031 17.4947 23.8031C20.6296 23.8031 23.1709 26.3161 23.1709 29.4159C23.1709 31.1966 22.3898 32.9015 21.0818 33.9297L21.1212 33.2625C22.2072 32.3133 22.7343 30.962 22.7343 29.4159C22.7343 26.5544 20.3885 24.2349 17.4947 24.2349Z" fill="white"/>
<path fill-rule="evenodd" clip-rule="evenodd" d="M11.0127 29.4159C11.0127 26.2701 14.3158 23.1673 17.495 23.1673C20.6742 23.1673 23.8707 26.2701 23.8707 29.4159C23.8707 31.2193 22.3951 33.251 21.0655 34.2962L21.0677 34.3947L21.0418 33.2235L21.0677 33.2008C22.1328 32.2699 22.6528 30.9427 22.6528 29.4159C22.6528 26.6005 20.3444 24.3166 17.495 24.3166C14.6456 24.3166 12.3372 26.6005 12.3372 29.4159C12.3372 32.2314 14.6456 34.5151 17.495 34.5151C18.0454 34.5151 18.5781 34.3679 19.0862 34.2051L19.1929 34.171V34.556L19.2097 35.061C18.696 35.2116 18.0687 35.5432 17.495 35.5432C14.3158 35.5432 11.0127 32.5618 11.0127 29.4159ZM17.495 23.885C14.4044 23.885 11.9006 26.3622 11.9006 29.4159C11.9006 32.4697 14.4044 34.9469 17.495 34.9469C17.9893 34.9469 18.5983 34.8165 19.0875 34.6813L19.0294 34.6379V34.3947C18.5492 34.5448 18.0325 34.6786 17.495 34.6786C14.557 34.6786 12.1737 32.3233 12.1737 29.4159C12.1737 26.5084 14.557 24.1531 17.495 24.1531C20.433 24.1531 22.8163 26.5084 22.8163 29.4159C22.8163 30.9688 22.2904 32.335 21.2011 33.3012L21.1747 33.7484C22.375 32.7273 23.0894 31.1077 23.0894 29.4159C23.0894 26.3622 20.5856 23.885 17.495 23.885Z" fill="white" stroke="white" stroke-width="0.243697"/>
<path fill-rule="evenodd" clip-rule="evenodd" d="M21.5641 30.1216C21.5641 28.7279 21.2735 27.614 20.7689 26.5003L20.9659 26.4611C21.4833 27.603 21.7937 28.6999 21.7937 30.1216C21.7937 30.7772 21.6826 31.5775 21.5641 32.185L21.3208 32.2567C21.4916 31.9157 21.5641 30.764 21.5641 30.1216Z" fill="white"/>
<path fill-rule="evenodd" clip-rule="evenodd" d="M12.6759 31.7315C14.1465 32.2438 15.8127 32.533 17.5787 32.533C19.1825 32.533 20.804 32.4022 22.1628 31.9791L22.225 32.1889C20.8364 32.621 19.1904 32.7521 17.5787 32.7521C15.7902 32.7521 14.1007 32.4592 12.6071 31.9391L12.6759 31.7315Z" fill="white"/>
<path fill-rule="evenodd" clip-rule="evenodd" d="M18.5457 29.701L18.4407 26.7077L18.5983 26.7862L18.756 29.6971V32.5952H18.5457V29.701Z" fill="white"/>
<path fill-rule="evenodd" clip-rule="evenodd" d="M13.2683 28.9704C13.3742 28.0024 13.7638 27.2714 14.4099 26.5025L14.2509 26.3611C13.5859 27.1527 13.1653 27.9279 13.0567 28.9724C13.0527 29.0111 13.0624 29.0467 13.0708 29.0708C13.0798 29.0966 13.087 29.1122 13.0976 29.1334C13.0987 29.1356 13.0997 29.1378 13.1007 29.1398C13.1034 29.1451 13.1058 29.1498 13.1075 29.1532C13.1086 29.1554 13.1104 29.159 13.1124 29.1624C13.1131 29.1637 13.1161 29.1688 13.1204 29.1746C13.1218 29.1763 13.1298 29.1873 13.143 29.1968C13.1487 29.2012 13.1695 29.2158 13.2005 29.2168C13.2434 29.2183 13.2769 29.1934 13.2939 29.1644C13.3065 29.143 13.3082 29.123 13.3086 29.1169C13.3093 29.1086 13.3088 29.1018 13.3085 29.0984C13.3078 29.0915 13.3067 29.0862 13.3062 29.0842C13.3052 29.0796 13.309 29.0854 13.3086 29.0842C13.3076 29.0808 13.3064 29.0774 13.3056 29.075C13.3046 29.072 13.3032 29.0681 13.3016 29.0635C13.3006 29.0606 13.2995 29.0574 13.2983 29.0542L13.2683 28.9704Z" fill="white"/>
<path fill-rule="evenodd" clip-rule="evenodd" d="M13.1797 28.9448C14.6494 29.2689 15.8039 29.4739 17.5129 29.4739V29.6513C15.8353 29.6513 14.6254 29.5316 13.1797 29.2209C13.1797 29.083 13.1797 29.3589 13.1797 29.2209V28.9448Z" fill="white"/>
<path fill-rule="evenodd" clip-rule="evenodd" d="M14.2835 26.3231C15.3793 26.6097 15.9806 26.6889 17.2396 26.7065L17.2367 26.9431C15.9612 26.9253 15.2585 26.89 14.1456 26.599L14.2835 26.3231ZM18.4619 26.6765C19.4403 26.6146 20.0413 26.6874 20.907 26.4611L21.045 26.599C20.1616 26.83 19.4616 26.8502 18.4752 26.9126L18.4619 26.6765Z" fill="white"/>
<path fill-rule="evenodd" clip-rule="evenodd" d="M17.0945 26.7077H17.4216V28.1553L17.5002 29.5244L17.1736 29.5429L17.0945 28.1645V26.7077Z" fill="white"/>
<path d="M10.5219 30.6349L10.1929 27.2587C9.67346 27.2587 9.01643 27.7904 8.89458 26.8156C8.71614 26.9521 8.36651 27.2587 8.12381 27.2587C7.54006 27.2587 7.28622 26.5663 7.28622 25.9868C7.28622 25.6037 7.43239 24.9879 7.43239 24.9879C7.11339 24.7176 6.57945 25.2316 6.33575 24.3787C6.33575 23.7806 6.82037 23.1573 7.43239 22.9165C7.17366 22.7318 7.28622 22.1172 7.28622 21.7394C7.91979 20.9669 8.15052 21.2106 8.65088 21.2106C8.76008 21.2106 8.91948 20.4266 9.01643 20.4676C9.42964 20.0594 9.58336 20.2358 10.2349 20.2358C10.7427 20.2358 10.4786 19.7479 11.6971 19.7484C13.123 20.5107 12.4452 20.8451 12.6719 20.8451C13.2556 20.8451 13.6467 21.1185 13.6467 21.698C13.6467 21.9519 13.5798 22.2475 13.4285 22.4291C14.02 22.6511 13.9221 22.6728 13.9221 23.1997C13.9221 23.5674 13.7489 23.8374 13.4285 24.0809C13.7489 24.3784 13.4285 24.522 13.4285 24.9716C12.935 25.5706 12.7156 25.2789 12.0575 26.4769C11.6762 26.4769 11.7676 26.8407 11.4757 26.6575L11.2947 26.8278V29.2541L11.6188 31.5955L10.9058 31.2339L10.5219 30.6349Z" fill="white"/>
<path fill-rule="evenodd" clip-rule="evenodd" d="M19.2379 32.5991C19.272 32.5991 19.3047 32.5718 19.3288 32.5991C19.3529 32.6264 19.3665 32.6634 19.3665 32.7446V32.89H20.9089V32.5581C20.9089 32.5196 20.8848 32.4399 20.9089 32.4126C20.933 32.3853 21.0033 32.4126 21.0374 32.4126C21.0715 32.4126 21.1042 32.428 21.1283 32.4553C21.1524 32.4826 21.166 32.5196 21.166 32.5581V34.6888V35.6682C21.166 35.7067 21.1524 35.7437 21.1283 35.771C21.1042 35.7983 21.0374 35.8137 21.0374 35.8137C21.166 35.6682 20.9706 35.7983 20.9465 35.771C20.9465 35.771 20.9089 35.7067 20.9089 35.6682V34.8703H19.3665V35.6682C19.3665 35.7067 19.3529 35.7437 19.3288 35.771C19.3047 35.7983 19.272 35.8137 19.2379 35.8137C19.2038 35.8137 19.1711 35.7983 19.147 35.771C19.1229 35.7437 19.1094 35.7067 19.1094 35.6682V32.7446C19.1094 32.6634 19.1229 32.6264 19.147 32.5991C19.1711 32.5718 19.2038 32.5991 19.2379 32.5991ZM19.3665 34.6364H20.9089V34.0542H19.3665V34.6364ZM19.3665 33.7632H20.9089V33.181H19.3665V33.7632Z" fill="white"/>
<path d="M17.2847 35.8381C16.9074 35.8381 16.1884 35.775 15.1279 35.6485C15.0303 35.5851 14.9523 35.4616 14.8937 35.2776C14.7831 35.3351 14.6204 35.3868 14.4057 35.4328C14.3537 35.4099 14.2268 35.3495 14.0251 35.2518C13.8299 35.1484 13.6933 35.0765 13.6152 35.0363C13.5436 34.9959 13.433 34.9357 13.2834 34.855C13.1402 34.769 13.0759 34.4298 12.9653 34.355C12.8612 34.2745 12.6946 34.4471 12.5905 34.355C11.4063 33.3261 10.8143 32.1129 10.8143 30.7161C10.8143 30.5608 11.064 30.1256 10.9664 29.7405C10.9794 29.6428 10.7037 29.5261 10.7362 29.0606C10.7622 28.4913 10.8566 27.8936 11.0192 27.267C11.1884 26.6346 11.4259 26.1372 11.7316 25.7751C11.8227 25.6601 11.9756 25.5826 12.1903 25.5424C12.2229 25.3009 12.2684 25.1371 12.327 25.0508C12.6523 24.5737 13.0915 24.1742 13.6445 23.8523C14.204 23.5245 14.7831 23.2945 15.3816 23.1624C15.9868 23.0245 16.6211 22.9526 17.2847 22.9467L17.2262 22.8778C17.2912 22.8663 17.3921 22.8607 17.5287 22.8607C17.8215 22.8607 18.2607 22.8722 18.8462 22.8951C18.9764 22.9584 19.0772 23.0761 19.1488 23.2487C19.344 23.1968 19.5359 23.1624 19.7246 23.1451C19.8222 23.1912 20.0011 23.2745 20.2613 23.3951C20.5216 23.516 20.6229 23.904 20.7595 23.973C20.8962 24.0419 21.156 23.8465 21.3447 23.973C21.5398 24.0936 21.7057 24.2174 21.8424 24.3439C22.1677 24.6599 22.4377 24.9387 22.6524 25.1802C22.8671 25.4159 22.9301 25.885 23.1513 26.2069C23.3725 26.523 23.6869 26.6634 23.7845 27.0082C23.8886 27.3474 23.9341 27.701 23.9211 28.0688C23.9472 28.1609 23.9602 28.2269 23.9602 28.2671C23.9602 28.4224 23.9211 28.5518 23.843 28.6551L24.1261 28.845C24.1 29.0116 24.0708 29.3967 24.0382 30.0003C24.0057 30.5984 23.9341 31.0553 23.8235 31.3714L23.4039 31.5266L23.6674 31.8285C23.5047 32.2999 23.303 32.6764 23.0623 32.9581C23.0428 32.981 23.0103 33.0156 22.9647 33.0617C22.9192 33.1075 22.7245 33.0214 22.6985 33.0617C22.679 33.096 22.8216 33.2656 22.8085 33.3117C22.5873 33.4611 22.3076 33.7369 21.9693 34.1395C21.6309 34.5419 21.3512 34.8207 21.1299 34.9759C21.0714 35.0161 21.0096 35.0507 20.9445 35.0792C20.8859 35.108 21.0486 33.8978 20.9445 33.9321C20.8404 33.9609 20.9835 33.9207 20.9445 33.9321C20.6126 34.0623 19.6471 33.9672 19.334 34.0525C19.2669 34.0706 19.2001 35.6117 19.1332 35.6278C18.5448 35.7711 17.9572 35.8381 17.2847 35.8381ZM17.7718 34.5331C17.915 34.5331 18.3623 34.4761 18.7331 34.413C19.104 34.344 19.2138 34.0011 19.2138 33.9321C19.6757 33.8001 20.6324 34.3294 21.0162 33.812C21.121 33.6694 20.9318 32.5099 21.0162 32.37C21.2411 31.9977 22.1374 32.4809 22.2179 32.1298L22.5783 30.9281C22.5783 30.9581 22.6109 31.0087 22.5783 30.9281C22.5458 30.8477 22.5783 30.98 22.5783 30.9281C22.5783 30.7731 22.6204 30.2716 22.6985 29.9669C22.6985 30.1163 22.7766 29.6623 22.6985 29.9669C22.6985 29.829 22.744 29.4247 22.6985 29.1257C22.6595 28.8269 22.6239 28.1363 22.5783 28.0442C22.5783 27.9869 22.6889 28.165 22.5783 28.0442C22.5198 27.7108 21.4878 26.2696 21.3837 26.0166C21.2796 25.7578 20.7981 25.5219 20.7005 25.384C20.7005 24.8322 20.398 25.1256 20.2613 24.8956C20.1312 24.6658 19.8222 25.0969 19.7246 24.8439L19.3196 24.4818C19.2025 24.3955 19.0246 24.5544 18.7188 24.4567C18.4195 24.359 18.3552 24.5544 18.2381 24.4567C18.1535 24.4335 17.9947 24.348 17.8776 24.3365C17.767 24.3251 17.7232 24.3192 17.6517 24.3192C17.5866 24.3134 17.4265 24.3307 17.2768 24.3365C17.1272 24.3365 16.9697 24.3192 16.9307 24.3192C16.8461 24.3192 16.7294 24.3078 16.6904 24.3192L16.3155 24.4567C15.6324 24.5198 15.6418 24.6848 15.3686 24.7998C15.1018 24.9148 14.5573 25.084 14.1669 25.5209L14.0468 25.6411L13.446 26.0015C12.971 26.7375 12.5302 27.4751 12.4847 28.0442C12.4782 28.1477 12.4166 28.4662 12.3645 28.7653C12.319 29.0584 12.2444 29.4396 12.2444 29.6065C12.2053 29.4281 12.2444 29.7042 12.2444 29.6065C12.2444 29.5202 12.2834 29.7846 12.2444 29.6065C12.2444 29.7213 12.4948 30.7363 12.4037 30.949C12.5923 31.0468 12.8873 32.0493 12.9653 32.1298C13.0109 32.4344 13.5137 32.7514 13.8065 33.2113C14.1057 33.6711 14.8094 33.6672 15.1283 34.0523C15.1933 34.0983 15.8748 34.1719 16.0895 34.2928C15.992 34.2121 16.3108 34.4134 16.0895 34.2928C16.1806 34.2928 17.5311 34.4527 17.7718 34.5331C17.9019 34.5272 17.5311 34.5216 17.7718 34.5331C18.0126 34.5387 17.6938 34.5331 17.7718 34.5331Z" fill="white"/>
<path d="M19.7393 29.8619C19.7393 30.0637 19.5756 30.2274 19.3737 30.2274C19.1718 30.2274 19.0082 30.0637 19.0082 29.8619C19.0082 29.6601 19.1718 29.4963 19.3737 29.4963C19.5756 29.4963 19.7393 29.6601 19.7393 29.8619Z" fill="white"/>
</svg>
